<?xml version="1.0" encoding="UTF-8"?>
<!DOCTYPE svg PUBLIC "-//W3C//DTD SVG 1.1//EN" "http://www.w3.org/Graphics/SVG/1.1/DTD/svg11.dtd">
<svg xmlns="http://www.w3.org/2000/svg" version="1.1" width="100px" height="100px" style="shape-rendering:geometricPrecision; text-rendering:geometricPrecision; image-rendering:optimizeQuality; fill-rule:evenodd; clip-rule:evenodd" xmlns:xlink="http://www.w3.org/1999/xlink">
<g><path style="opacity:0.008" fill="#000000" d="M 1.5,-0.5 C 1.83333,-0.5 2.16667,-0.5 2.5,-0.5C 2.31468,0.170143 1.98135,0.170143 1.5,-0.5 Z"/></g>
<g><path style="opacity:0.008" fill="#000000" d="M 14.5,-0.5 C 14.8333,-0.5 15.1667,-0.5 15.5,-0.5C 15.5,-0.166667 15.5,0.166667 15.5,0.5C 15.1667,0.166667 14.8333,-0.166667 14.5,-0.5 Z"/></g>
<g><path style="opacity:0.008" fill="#000000" d="M 16.5,-0.5 C 16.8333,-0.5 17.1667,-0.5 17.5,-0.5C 17.3147,0.170143 16.9813,0.170143 16.5,-0.5 Z"/></g>
<g><path style="opacity:0.008" fill="#000000" d="M 28.5,-0.5 C 28.8333,-0.5 29.1667,-0.5 29.5,-0.5C 29.1667,2.16667 28.8333,2.16667 28.5,-0.5 Z"/></g>
<g><path style="opacity:0.008" fill="#000000" d="M 39.5,-0.5 C 39.8333,-0.5 40.1667,-0.5 40.5,-0.5C 40.3147,0.170143 39.9813,0.170143 39.5,-0.5 Z"/></g>
<g><path style="opacity:0.008" fill="#000000" d="M 41.5,-0.5 C 41.8333,-0.5 42.1667,-0.5 42.5,-0.5C 42.3147,0.170143 41.9813,0.170143 41.5,-0.5 Z"/></g>
<g><path style="opacity:0.008" fill="#000000" d="M 89.5,-0.5 C 89.8333,-0.5 90.1667,-0.5 90.5,-0.5C 90.3147,0.170143 89.9813,0.170143 89.5,-0.5 Z"/></g>
<g><path style="opacity:0.008" fill="#000000" d="M 4.5,0.5 C 5.83333,1.16667 5.83333,1.16667 4.5,0.5 Z"/></g>
<g><path style="opacity:0.008" fill="#000000" d="M 7.5,1.5 C 6.83333,0.166667 6.83333,0.166667 7.5,1.5 Z"/></g>
<g><path style="opacity:0.008" fill="#000000" d="M 14.5,0.5 C 13.828,1.26739 12.9947,1.93406 12,2.5C 11.8119,0.938699 12.6453,0.272032 14.5,0.5 Z"/></g>
<g><path style="opacity:0.008" fill="#000000" d="M 15.5,0.5 C 15.8333,0.5 16.1667,0.5 16.5,0.5C 16.3147,1.17014 15.9813,1.17014 15.5,0.5 Z"/></g>
<g><path style="opacity:0.008" fill="#000000" d="M 19.5,4.5 C 18.8333,4.83333 18.1667,5.16667 17.5,5.5C 17.5,4.83333 17.1667,4.5 16.5,4.5C 17.4782,1.51263 19.4782,0.345961 22.5,1C 20.5743,1.42244 19.5743,2.5891 19.5,4.5 Z"/></g>
<g><path style="opacity:0.008" fill="#000000" d="M 89.5,0.5 C 89.5,1.16667 89.5,1.83333 89.5,2.5C 87.0673,2.2144 87.0673,1.54773 89.5,0.5 Z"/></g>
<g><path style="opacity:0.008" fill="#000000" d="M 4.5,1.5 C 3.83333,2.16667 3.83333,2.16667 4.5,1.5 Z"/></g>
<g><path style="opacity:0.008" fill="#000000" d="M 7.5,1.5 C 8.16667,1.5 8.5,1.83333 8.5,2.5C 8.16667,2.16667 7.83333,1.83333 7.5,1.5 Z"/></g>
<g><path style="opacity:0.008" fill="#000000" d="M 9.5,1.5 C 10.8333,2.16667 10.8333,2.16667 9.5,1.5 Z"/></g>
<g><path style="opacity:0.008" fill="#000000" d="M 26.5,1.5 C 27.8333,2.16667 27.8333,2.16667 26.5,1.5 Z"/></g>
<g><path style="opacity:0.008" fill="#000000" d="M 38.5,2.5 C 37.8333,1.16667 37.8333,1.16667 38.5,2.5 Z"/></g>
<g><path style="opacity:0.008" fill="#000000" d="M 82.5,2.5 C 82.8966,1.47498 83.5632,1.30831 84.5,2C 83.9056,2.46434 83.2389,2.63101 82.5,2.5 Z"/></g>
<g><path style="opacity:0.008" fill="#000000" d="M 90.5,2.5 C 91.1667,1.16667 91.8333,1.16667 92.5,2.5C 91.8333,2.5 91.1667,2.5 90.5,2.5 Z"/></g>
<g><path style="opacity:0.008" fill="#000000" d="M 8.5,2.5 C 8.83333,2.5 9.16667,2.5 9.5,2.5C 9.31468,3.17014 8.98135,3.17014 8.5,2.5 Z"/></g>
<g><path style="opacity:0.008" fill="#000000" d="M 13.5,2.5 C 14.8333,3.16667 14.8333,3.16667 13.5,2.5 Z"/></g>
<g><path style="opacity:0.008" fill="#000000" d="M 21.5,2.5 C 22.8333,3.16667 22.8333,3.16667 21.5,2.5 Z"/></g>
<g><path style="opacity:0.984" fill="#090f1a" d="M 64.5,-0.5 C 64.8333,-0.5 65.1667,-0.5 65.5,-0.5C 68.7466,0.240627 70.2466,2.24063 70,5.5C 68.4305,5.32999 66.5972,4.99665 64.5,4.5C 62.1944,4.00745 59.861,3.67412 57.5,3.5C 56.2921,4.23411 54.9587,4.56745 53.5,4.5C 52.391,4.55688 51.391,4.89022 50.5,5.5C 47.5794,5.28262 44.9128,5.94929 42.5,7.5C 42.1583,6.66175 41.4916,6.32842 40.5,6.5C 39.1938,5.53261 38.5271,4.19928 38.5,2.5C 40.8268,2.33538 42.9935,1.66871 45,0.5C 46.231,1.10779 47.5643,1.44113 49,1.5C 54.3383,1.02014 59.505,0.353475 64.5,-0.5 Z"/></g>
<g><path style="opacity:0.008" fill="#000000" d="M 71.5,2.5 C 72.8333,3.16667 72.8333,3.16667 71.5,2.5 Z"/></g>
<g><path style="opacity:0.008" fill="#000000" d="M 89.5,2.5 C 89.8333,2.5 90.1667,2.5 90.5,2.5C 90.5,2.83333 90.5,3.16667 90.5,3.5C 90.1667,3.16667 89.8333,2.83333 89.5,2.5 Z"/></g>
<g><path style="opacity:0.008" fill="#000000" d="M 92.5,2.5 C 94.6456,2.69636 94.8122,3.69636 93,5.5C 92.5172,4.55198 92.3505,3.55198 92.5,2.5 Z"/></g>
<g><path style="opacity:0.008" fill="#000000" d="M 96.5,2.5 C 97.8333,3.16667 97.8333,3.16667 96.5,2.5 Z"/></g>
<g><path style="opacity:0.008" fill="#000000" d="M 34.5,3.5 C 35.525,3.89657 35.6917,4.56323 35,5.5C 34.5357,4.90558 34.369,4.23891 34.5,3.5 Z"/></g>
<g><path style="opacity:0.008" fill="#000000" d="M 76.5,3.5 C 77.525,3.89657 77.6917,4.56323 77,5.5C 76.5357,4.90558 76.369,4.23891 76.5,3.5 Z"/></g>
<g><path style="opacity:0.008" fill="#000000" d="M 84.5,3.5 C 85.525,3.89657 85.6917,4.56323 85,5.5C 84.5357,4.90558 84.369,4.23891 84.5,3.5 Z"/></g>
<g><path style="opacity:0.008" fill="#000000" d="M 89.5,3.5 C 89.631,4.23891 89.4643,4.90558 89,5.5C 88.3083,4.56323 88.475,3.89657 89.5,3.5 Z"/></g>
<g><path style="opacity:0.008" fill="#000000" d="M 90.5,3.5 C 91.8333,4.16667 91.8333,4.16667 90.5,3.5 Z"/></g>
<g><path style="opacity:0.008" fill="#000000" d="M 0.5,4.5 C 1.83333,5.16667 1.83333,5.16667 0.5,4.5 Z"/></g>
<g><path style="opacity:0.008" fill="#000000" d="M 2.5,4.5 C 3.52502,4.89657 3.69169,5.56323 3,6.5C 2.53566,5.90558 2.36899,5.23891 2.5,4.5 Z"/></g>
<g><path style="opacity:0.008" fill="#000000" d="M 12.5,4.5 C 15.0009,4.51092 15.1676,5.17759 13,6.5C 12.5357,5.90558 12.369,5.23891 12.5,4.5 Z"/></g>
<g><path style="opacity:0.008" fill="#000000" d="M 16.5,4.5 C 17.1667,4.5 17.5,4.83333 17.5,5.5C 17.5,5.83333 17.5,6.16667 17.5,6.5C 16.8333,6.5 16.1667,6.5 15.5,6.5C 15.3284,5.50838 15.6618,4.84171 16.5,4.5 Z"/></g>
<g><path style="opacity:0.008" fill="#000000" d="M 19.5,4.5 C 20.8333,5.16667 20.8333,5.16667 19.5,4.5 Z"/></g>
<g><path style="opacity:0.008" fill="#000000" d="M 21.5,4.5 C 24.0009,4.51092 24.1676,5.17759 22,6.5C 21.5357,5.90558 21.369,5.23891 21.5,4.5 Z"/></g>
<g><path style="opacity:0.008" fill="#000000" d="M 30.5,4.5 C 31.8333,5.16667 31.8333,5.16667 30.5,4.5 Z"/></g>
<g><path style="opacity:0.008" fill="#000000" d="M 36.5,4.5 C 37.8333,5.16667 37.8333,5.16667 36.5,4.5 Z"/></g>
<g><path style="opacity:0.008" fill="#000000" d="M 71.5,4.5 C 72.8333,5.16667 72.8333,5.16667 71.5,4.5 Z"/></g>
<g><path style="opacity:0.008" fill="#000000" d="M 78.5,4.5 C 79.8333,5.16667 79.8333,5.16667 78.5,4.5 Z"/></g>
<g><path style="opacity:0.008" fill="#000000" d="M 80.5,4.5 C 81.8333,5.16667 81.8333,5.16667 80.5,4.5 Z"/></g>
<g><path style="opacity:0.008" fill="#000000" d="M 86.5,4.5 C 87.8333,5.16667 87.8333,5.16667 86.5,4.5 Z"/></g>
<g><path style="opacity:0.008" fill="#000000" d="M 94.5,4.5 C 95.8333,5.16667 95.8333,5.16667 94.5,4.5 Z"/></g>
<g><path style="opacity:0.008" fill="#000000" d="M 96.5,4.5 C 97.8333,5.16667 97.8333,5.16667 96.5,4.5 Z"/></g>
<g><path style="opacity:0.008" fill="#000000" d="M 15.5,6.5 C 14.8333,7.16667 14.8333,7.16667 15.5,6.5 Z"/></g>
<g><path style="opacity:0.008" fill="#000000" d="M 17.5,6.5 C 18.8333,7.16667 18.8333,7.16667 17.5,6.5 Z"/></g>
<g><path style="opacity:0.008" fill="#000000" d="M 19.5,6.5 C 20.8333,7.16667 20.8333,7.16667 19.5,6.5 Z"/></g>
<g><path style="opacity:0.008" fill="#000000" d="M 28.5,7.5 C 27.8333,6.16667 27.8333,6.16667 28.5,7.5 Z"/></g>
<g><path style="opacity:0.008" fill="#000000" d="M 40.5,6.5 C 39.8333,7.16667 39.8333,7.16667 40.5,6.5 Z"/></g>
<g><path style="opacity:0.008" fill="#000000" d="M 67.5,6.5 C 68.8333,7.16667 68.8333,7.16667 67.5,6.5 Z"/></g>
<g><path style="opacity:0.008" fill="#000000" d="M 69.5,6.5 C 70.8333,7.16667 70.8333,7.16667 69.5,6.5 Z"/></g>
<g><path style="opacity:0.008" fill="#000000" d="M 75.5,6.5 C 76.8333,7.16667 76.8333,7.16667 75.5,6.5 Z"/></g>
<g><path style="opacity:0.008" fill="#000000" d="M 88.5,6.5 C 89.8333,7.16667 89.8333,7.16667 88.5,6.5 Z"/></g>
<g><path style="opacity:0.008" fill="#000000" d="M 90.5,6.5 C 91.8333,7.16667 91.8333,7.16667 90.5,6.5 Z"/></g>
<g><path style="opacity:0.008" fill="#000000" d="M 92.5,6.5 C 93.8333,7.16667 93.8333,7.16667 92.5,6.5 Z"/></g>
<g><path style="opacity:0.008" fill="#000000" d="M 94.5,6.5 C 95.8333,7.16667 95.8333,7.16667 94.5,6.5 Z"/></g>
<g><path style="opacity:0.008" fill="#000000" d="M 7.5,7.5 C 8.83333,8.16667 8.83333,8.16667 7.5,7.5 Z"/></g>
<g><path style="opacity:0.008" fill="#000000" d="M 11.5,7.5 C 12.8333,8.16667 12.8333,8.16667 11.5,7.5 Z"/></g>
<g><path style="opacity:0.008" fill="#000000" d="M 21.5,7.5 C 22.8333,8.16667 22.8333,8.16667 21.5,7.5 Z"/></g>
<g><path style="opacity:0.008" fill="#000000" d="M 28.5,7.5 C 29.8333,8.16667 29.8333,8.16667 28.5,7.5 Z"/></g>
<g><path style="opacity:0.008" fill="#000000" d="M 2.5,8.5 C 3.83333,9.16667 3.83333,9.16667 2.5,8.5 Z"/></g>
<g><path style="opacity:0.008" fill="#000000" d="M 19.5,8.5 C 20.8333,9.16667 20.8333,9.16667 19.5,8.5 Z"/></g>
<g><path style="opacity:0.008" fill="#000000" d="M 35.5,8.5 C 36.8333,9.16667 36.8333,9.16667 35.5,8.5 Z"/></g>
<g><path style="opacity:0.008" fill="#000000" d="M 37.5,8.5 C 38.8333,9.16667 38.8333,9.16667 37.5,8.5 Z"/></g>
<g><path style="opacity:1" fill="#e71001" d="M 57.5,3.5 C 61.2585,8.10096 63.2585,13.4343 63.5,19.5C 62.8333,19.5 62.5,19.8333 62.5,20.5C 59.5,20.5 56.5,20.5 53.5,20.5C 53.5,18.1667 53.5,15.8333 53.5,13.5C 53.5,10.5 53.5,7.5 53.5,4.5C 54.9587,4.56745 56.2921,4.23411 57.5,3.5 Z"/></g>
<g><path style="opacity:0.008" fill="#000000" d="M 85.5,8.5 C 86.8333,9.16667 86.8333,9.16667 85.5,8.5 Z"/></g>
<g><path style="opacity:0.008" fill="#000000" d="M 87.5,8.5 C 88.8333,9.16667 88.8333,9.16667 87.5,8.5 Z"/></g>
<g><path style="opacity:0.008" fill="#000000" d="M 91.5,11.5 C 91.3322,8.31604 92.6655,7.81604 95.5,10C 94.0993,10.4101 92.766,10.9101 91.5,11.5 Z"/></g>
<g><path style="opacity:0.008" fill="#000000" d="M 17.5,10.5 C 16.3416,13.1338 15.3416,12.9671 14.5,10C 15.5768,9.53042 16.5768,9.69708 17.5,10.5 Z"/></g>
<g><path style="opacity:0.008" fill="#000000" d="M 18.5,10.5 C 17.8333,9.16667 17.8333,9.16667 18.5,10.5 Z"/></g>
<g><path style="opacity:0.008" fill="#000000" d="M 21.5,10.5 C 21.8966,9.47498 22.5632,9.30831 23.5,10C 22.9056,10.4643 22.2389,10.631 21.5,10.5 Z"/></g>
<g><path style="opacity:0.008" fill="#000000" d="M 29.5,9.5 C 30.8333,10.1667 30.8333,10.1667 29.5,9.5 Z"/></g>
<g><path style="opacity:0.008" fill="#000000" d="M 34.5,10.5 C 33.8333,9.16667 33.8333,9.16667 34.5,10.5 Z"/></g>
<g><path style="opacity:0.008" fill="#000000" d="M 40.5,10.5 C 39.8333,9.16667 39.8333,9.16667 40.5,10.5 Z"/></g>
<g><path style="opacity:0.008" fill="#000000" d="M 79.5,9.5 C 80.8333,10.1667 80.8333,10.1667 79.5,9.5 Z"/></g>
<g><path style="opacity:0.008" fill="#000000" d="M 81.5,9.5 C 82.8333,10.1667 82.8333,10.1667 81.5,9.5 Z"/></g>
<g><path style="opacity:0.008" fill="#000000" d="M -0.5,12.5 C -0.5,12.1667 -0.5,11.8333 -0.5,11.5C 0.3635,10.537 1.03017,10.537 1.5,11.5C 1.04311,12.2975 0.376442,12.6309 -0.5,12.5 Z"/></g>
<g><path style="opacity:0.008" fill="#000000" d="M 2.5,10.5 C 3.52502,10.8966 3.69169,11.5632 3,12.5C 2.53566,11.9056 2.36899,11.2389 2.5,10.5 Z"/></g>
<g><path style="opacity:0.008" fill="#000000" d="M 11.5,10.5 C 12.8333,11.1667 12.8333,11.1667 11.5,10.5 Z"/></g>
<g><path style="opacity:0.008" fill="#000000" d="M 18.5,10.5 C 19.8333,11.1667 19.8333,11.1667 18.5,10.5 Z"/></g>
<g><path style="opacity:0.008" fill="#000000" d="M 29.5,10.5 C 28.8333,11.1667 28.8333,11.1667 29.5,10.5 Z"/></g>
<g><path style="opacity:0.882" fill="#e10f07" d="M 50.5,5.5 C 48.9402,7.95354 47.9402,10.6202 47.5,13.5C 46.5386,15.2646 46.2053,17.2646 46.5,19.5C 41.837,18.8364 39.837,16.1697 40.5,11.5C 40.5,11.1667 40.5,10.8333 40.5,10.5C 41.4013,9.70951 42.0679,8.70951 42.5,7.5C 44.9128,5.94929 47.5794,5.28262 50.5,5.5 Z"/></g>
<g><path style="opacity:0.008" fill="#000000" d="M 96.5,10.5 C 97.8333,11.1667 97.8333,11.1667 96.5,10.5 Z"/></g>
<g><path style="opacity:0.008" fill="#000000" d="M 4.5,11.5 C 5.83333,12.1667 5.83333,12.1667 4.5,11.5 Z"/></g>
<g><path style="opacity:0.008" fill="#000000" d="M 13.5,11.5 C 14.8333,12.1667 14.8333,12.1667 13.5,11.5 Z"/></g>
<g><path style="opacity:1" fill="#fdc419" d="M 53.5,4.5 C 53.5,7.5 53.5,10.5 53.5,13.5C 52.5655,14.5676 52.2322,15.901 52.5,17.5C 50.8333,17.5 49.1667,17.5 47.5,17.5C 47.5,16.1667 47.5,14.8333 47.5,13.5C 47.9402,10.6202 48.9402,7.95354 50.5,5.5C 51.391,4.89022 52.391,4.55688 53.5,4.5 Z"/></g>
<g><path style="opacity:1" fill="#ebc11f" d="M 57.5,3.5 C 59.861,3.67412 62.1944,4.00745 64.5,4.5C 65.1667,5.83333 66.1667,6.83333 67.5,7.5C 67.5,8.16667 67.5,8.83333 67.5,9.5C 71.0608,14.82 69.7275,18.1533 63.5,19.5C 63.2585,13.4343 61.2585,8.10096 57.5,3.5 Z"/></g>
<g><path style="opacity:0.008" fill="#000000" d="M 82.5,11.5 C 83.8333,12.1667 83.8333,12.1667 82.5,11.5 Z"/></g>
<g><path style="opacity:0.008" fill="#000000" d="M 91.5,11.5 C 92.0892,14.7848 93.2559,15.1181 95,12.5C 96.0386,13.2438 96.5386,14.2438 96.5,15.5C 93.133,16.0013 92.7996,17.168 95.5,19C 95.1377,20.2247 94.6377,21.3914 94,22.5C 93.2917,21.6195 92.4584,20.9528 91.5,20.5C 89.7713,18.2733 87.438,17.2733 84.5,17.5C 84.5,17.1667 84.5,16.8333 84.5,16.5C 86.288,16.7852 87.9547,16.4519 89.5,15.5C 88.0977,14.1575 88.4311,13.3242 90.5,13C 86.7741,11.9568 87.1074,11.4568 91.5,11.5 Z"/></g>
<g><path style="opacity:0.008" fill="#000000" d="M -0.5,13.5 C 0.833333,14.1667 0.833333,14.1667 -0.5,13.5 Z"/></g>
<g><path style="opacity:0.008" fill="#000000" d="M 2.5,13.5 C 6.13313,13.443 6.2998,14.443 3,16.5C 2.51722,15.552 2.35055,14.552 2.5,13.5 Z"/></g>
<g><path style="opacity:0.008" fill="#000000" d="M 25.5,14.5 C 24.8333,14.5 24.5,14.8333 24.5,15.5C 24.5,15.8333 24.5,16.1667 24.5,16.5C 23.1667,17.1667 23.1667,17.8333 24.5,18.5C 24.5,19.1667 24.5,19.8333 24.5,20.5C 23.1667,21.1667 23.1667,21.8333 24.5,22.5C 24.5,22.8333 24.5,23.1667 24.5,23.5C 23.0413,23.5674 21.7079,23.2341 20.5,22.5C 20.5,21.8333 20.1667,21.5 19.5,21.5C 19.1667,20.1667 18.8333,20.1667 18.5,21.5C 16.3023,21.4088 15.9689,22.0755 17.5,23.5C 15.7168,22.8254 14.0502,22.4921 12.5,22.5C 16.5399,20.6537 16.3733,18.987 12,17.5C 9.45795,18.7739 8.95795,18.1073 10.5,15.5C 12.2027,16.6602 12.8693,15.9935 12.5,13.5C 15.0444,13.1043 17.2111,13.771 19,15.5C 21.0164,13.3918 23.1831,13.0584 25.5,14.5 Z M 18.5,21.5 C 18.5,22.1667 18.5,22.8333 18.5,23.5C 18.1667,23.5 17.8333,23.5 17.5,23.5C 15.9689,22.0755 16.3023,21.4088 18.5,21.5 Z"/></g>
<g><path style="opacity:0.008" fill="#000000" d="M 99.5,13.5 C 99.5,13.8333 99.5,14.1667 99.5,14.5C 98.8333,14.5 98.5,14.8333 98.5,15.5C 98.1667,15.5 97.8333,15.5 97.5,15.5C 97.5,14.1667 98.1667,13.5 99.5,13.5 Z"/></g>
<g><path style="opacity:0.008" fill="#000000" d="M 10.5,15.5 C 9.76109,15.631 9.09442,15.4643 8.5,15C 9.43677,14.3083 10.1034,14.475 10.5,15.5 Z"/></g>
<g><path style="opacity:0.959" fill="#7d6dcf" d="M 34.5,10.5 C 36.3035,10.4241 38.3035,10.7575 40.5,11.5C 39.837,16.1697 41.837,18.8364 46.5,19.5C 48.6074,20.4682 50.9407,20.8016 53.5,20.5C 56.5,20.5 59.5,20.5 62.5,20.5C 64.6977,20.4088 65.0311,21.0755 63.5,22.5C 56.0937,23.1534 48.7604,24.3201 41.5,26C 40.6667,26.8333 39.8333,27.6667 39,28.5C 38.5017,31.8168 38.335,35.1501 38.5,38.5C 38.6309,39.3764 38.2975,40.0431 37.5,40.5C 32.8602,38.8573 28.5268,36.8573 24.5,34.5C 24.5,30.8333 24.5,27.1667 24.5,23.5C 24.5,23.1667 24.5,22.8333 24.5,22.5C 24.5,21.8333 24.5,21.1667 24.5,20.5C 24.5,19.8333 24.5,19.1667 24.5,18.5C 24.5,17.8333 24.5,17.1667 24.5,16.5C 24.5,16.1667 24.5,15.8333 24.5,15.5C 25.1667,15.5 25.5,15.1667 25.5,14.5C 28.2908,12.7567 31.1241,12.09 34,12.5C 34.4643,11.9056 34.631,11.2389 34.5,10.5 Z"/></g>
<g><path style="opacity:0.008" fill="#000000" d="M 96.5,15.5 C 96.8333,15.5 97.1667,15.5 97.5,15.5C 97.8333,16.8333 98.1667,16.8333 98.5,15.5C 98.8333,15.5 99.1667,15.5 99.5,15.5C 99.5,16.8333 99.5,18.1667 99.5,19.5C 98.6981,20.9516 98.1981,22.6183 98,24.5C 97.2362,21.234 96.7362,18.234 96.5,15.5 Z"/></g>
<g><path style="opacity:0.008" fill="#000000" d="M -0.5,16.5 C 0.833333,17.1667 0.833333,17.1667 -0.5,16.5 Z"/></g>
<g><path style="opacity:0.008" fill="#000000" d="M 2.5,18.5 C 3.47197,17.2486 4.13864,17.582 4.5,19.5C 4.45728,20.4164 4.12395,21.0831 3.5,21.5C 3.73731,20.209 3.40397,19.209 2.5,18.5 Z"/></g>
<g><path style="opacity:0.008" fill="#000000" d="M 5.5,17.5 C 6.39695,18.5981 7.23029,18.5981 8,17.5C 8.66667,18.5 8.66667,19.5 8,20.5C 6.58296,19.9221 5.74962,18.9221 5.5,17.5 Z"/></g>
<g><path style="opacity:0.008" fill="#000000" d="M -0.5,18.5 C 0.5,19.8333 1.5,19.8333 2.5,18.5C 2.17876,20.0481 1.17876,20.7148 -0.5,20.5C -0.5,19.8333 -0.5,19.1667 -0.5,18.5 Z"/></g>
<g><path style="opacity:1" fill="#df8617" d="M 47.5,13.5 C 47.5,14.8333 47.5,16.1667 47.5,17.5C 49.1667,17.5 50.8333,17.5 52.5,17.5C 52.2322,15.901 52.5655,14.5676 53.5,13.5C 53.5,15.8333 53.5,18.1667 53.5,20.5C 50.9407,20.8016 48.6074,20.4682 46.5,19.5C 46.2053,17.2646 46.5386,15.2646 47.5,13.5 Z"/></g>
<g><path style="opacity:0.008" fill="#000000" d="M 12.5,22.5 C 10.2398,21.7624 10.0731,20.7624 12,19.5C 12.4828,20.448 12.6495,21.448 12.5,22.5 Z"/></g>
<g><path style="opacity:0.008" fill="#000000" d="M 5.5,20.5 C 6.83333,21.1667 6.83333,21.1667 5.5,20.5 Z"/></g>
<g><path style="opacity:0.008" fill="#000000" d="M 91.5,20.5 C 90.8333,21.1667 90.8333,21.1667 91.5,20.5 Z"/></g>
<g><path style="opacity:0.008" fill="#000000" d="M -0.5,22.5 C -0.5,22.1667 -0.5,21.8333 -0.5,21.5C 0.833333,21.5 2.16667,21.5 3.5,21.5C 4.26253,22.2679 5.26253,22.7679 6.5,23C 4.15271,23.3336 1.81938,23.167 -0.5,22.5 Z"/></g>
<g><path style="opacity:0.008" fill="#000000" d="M 7.5,21.5 C 8.83333,22.1667 8.83333,22.1667 7.5,21.5 Z"/></g>
<g><path style="opacity:0.008" fill="#000000" d="M 18.5,21.5 C 18.8333,21.5 19.1667,21.5 19.5,21.5C 20.1667,21.5 20.5,21.8333 20.5,22.5C 20.5912,24.6977 19.9245,25.0311 18.5,23.5C 18.5,22.8333 18.5,22.1667 18.5,21.5 Z"/></g>
<g><path style="opacity:1" fill="#a392f3" d="M 84.5,16.5 C 84.5,16.8333 84.5,17.1667 84.5,17.5C 86.2549,18.9618 87.5882,20.7951 88.5,23C 88.1277,25.6286 88.1277,28.1286 88.5,30.5C 88.5654,30.9382 88.3988,31.2716 88,31.5C 76.8959,24.7146 68.8959,27.3812 64,39.5C 57.4156,30.7637 49.5823,29.4304 40.5,35.5C 40.0423,32.6062 40.709,30.1062 42.5,28C 55.9383,25.5126 69.2717,22.8459 82.5,20C 76.0814,20.0188 69.748,20.8521 63.5,22.5C 65.0311,21.0755 64.6977,20.4088 62.5,20.5C 62.5,19.8333 62.8333,19.5 63.5,19.5C 69.7275,18.1533 71.0608,14.82 67.5,9.5C 70.3767,8.73764 73.21,8.40431 76,8.5C 77.836,11.1748 80.336,13.0081 83.5,14C 82.434,15.159 82.7673,15.9924 84.5,16.5 Z"/></g>
<g><path style="opacity:0.008" fill="#000000" d="M 90.5,21.5 C 90.5,21.8333 90.5,22.1667 90.5,22.5C 89.8299,22.0187 89.8299,21.6853 90.5,21.5 Z"/></g>
<g><path style="opacity:0.008" fill="#000000" d="M 90.5,22.5 C 92.0858,23.1481 93.7525,23.6481 95.5,24C 94.6667,24.1667 93.8333,24.3333 93,24.5C 91.6244,24.3158 90.7911,23.6491 90.5,22.5 Z"/></g>
<g><path style="opacity:0.008" fill="#000000" d="M -0.5,23.5 C 0.833333,24.1667 0.833333,24.1667 -0.5,23.5 Z"/></g>
<g><path style="opacity:1" fill="#b3a2f1" d="M 40.5,35.5 C 40.5,36.1667 40.5,36.8333 40.5,37.5C 39.8333,37.8333 39.1667,38.1667 38.5,38.5C 38.335,35.1501 38.5017,31.8168 39,28.5C 39.8333,27.6667 40.6667,26.8333 41.5,26C 48.7604,24.3201 56.0937,23.1534 63.5,22.5C 69.748,20.8521 76.0814,20.0188 82.5,20C 69.2717,22.8459 55.9383,25.5126 42.5,28C 40.709,30.1062 40.0423,32.6062 40.5,35.5 Z"/></g>
<g><path style="opacity:0.008" fill="#000000" d="M 15.5,27.5 C 15.4614,26.2438 15.9614,25.2438 17,24.5C 17.6667,25.8333 17.6667,27.1667 17,28.5C 16.6174,27.944 16.1174,27.6107 15.5,27.5 Z"/></g>
<g><path style="opacity:0.008" fill="#000000" d="M 2.5,26.5 C 2.89657,25.475 3.56323,25.3083 4.5,26C 3.90558,26.4643 3.23891,26.631 2.5,26.5 Z"/></g>
<g><path style="opacity:0.008" fill="#000000" d="M 21.5,25.5 C 22.8333,26.1667 22.8333,26.1667 21.5,25.5 Z"/></g>
<g><path style="opacity:0.008" fill="#000000" d="M 91.5,25.5 C 92.5735,26.2506 92.7401,27.2506 92,28.5C 91.5172,27.552 91.3505,26.552 91.5,25.5 Z"/></g>
<g><path style="opacity:0.008" fill="#000000" d="M 96.5,25.5 C 97.8333,26.1667 97.8333,26.1667 96.5,25.5 Z"/></g>
<g><path style="opacity:0.008" fill="#000000" d="M 14.5,27.5 C 13.8333,26.1667 13.8333,26.1667 14.5,27.5 Z"/></g>
<g><path style="opacity:0.008" fill="#000000" d="M 11.5,27.5 C 12.8333,28.1667 12.8333,28.1667 11.5,27.5 Z"/></g>
<g><path style="opacity:0.008" fill="#000000" d="M 14.5,27.5 C 14.8333,27.5 15.1667,27.5 15.5,27.5C 15.3147,28.1701 14.9813,28.1701 14.5,27.5 Z"/></g>
<g><path style="opacity:0.008" fill="#000000" d="M 18.5,27.5 C 19.8333,28.1667 19.8333,28.1667 18.5,27.5 Z"/></g>
<g><path style="opacity:0.008" fill="#000000" d="M 20.5,27.5 C 21.8333,28.1667 21.8333,28.1667 20.5,27.5 Z"/></g>
<g><path style="opacity:0.008" fill="#000000" d="M 22.5,27.5 C 23.8333,28.1667 23.8333,28.1667 22.5,27.5 Z"/></g>
<g><path style="opacity:0.008" fill="#000000" d="M 93.5,27.5 C 94.8333,28.1667 94.8333,28.1667 93.5,27.5 Z"/></g>
<g><path style="opacity:0.008" fill="#000000" d="M 97.5,27.5 C 98.8333,28.1667 98.8333,28.1667 97.5,27.5 Z"/></g>
<g><path style="opacity:0.008" fill="#000000" d="M 1.5,28.5 C 2.83333,29.1667 2.83333,29.1667 1.5,28.5 Z"/></g>
<g><path style="opacity:0.008" fill="#000000" d="M 4.5,30.5 C 4.16667,30.5 3.83333,30.5 3.5,30.5C 3.83333,27.8333 4.16667,27.8333 4.5,30.5 Z"/></g>
<g><path style="opacity:0.008" fill="#000000" d="M 5.5,28.5 C 6.83333,29.1667 6.83333,29.1667 5.5,28.5 Z"/></g>
<g><path style="opacity:0.008" fill="#000000" d="M 10.5,29.5 C 11.8333,30.1667 11.8333,30.1667 10.5,29.5 Z"/></g>
<g><path style="opacity:0.008" fill="#000000" d="M 13.5,29.5 C 14.8333,30.1667 14.8333,30.1667 13.5,29.5 Z"/></g>
<g><path style="opacity:0.008" fill="#000000" d="M 15.5,29.5 C 16.8333,30.1667 16.8333,30.1667 15.5,29.5 Z"/></g>
<g><path style="opacity:0.008" fill="#000000" d="M 18.5,29.5 C 19.8333,30.1667 19.8333,30.1667 18.5,29.5 Z"/></g>
<g><path style="opacity:0.008" fill="#000000" d="M 0.5,30.5 C 1.83333,31.1667 1.83333,31.1667 0.5,30.5 Z"/></g>
<g><path style="opacity:0.008" fill="#000000" d="M 3.5,30.5 C 2.83333,31.1667 2.83333,31.1667 3.5,30.5 Z"/></g>
<g><path style="opacity:0.008" fill="#000000" d="M 4.5,30.5 C 5.83333,31.1667 5.83333,31.1667 4.5,30.5 Z"/></g>
<g><path style="opacity:0.008" fill="#000000" d="M 10.5,30.5 C 9.83333,31.1667 9.83333,31.1667 10.5,30.5 Z"/></g>
<g><path style="opacity:0.008" fill="#000000" d="M 15.5,31.5 C 16.8333,32.1667 16.8333,32.1667 15.5,31.5 Z"/></g>
<g><path style="opacity:0.008" fill="#000000" d="M 96.5,31.5 C 97.8333,32.1667 97.8333,32.1667 96.5,31.5 Z"/></g>
<g><path style="opacity:0.008" fill="#000000" d="M 2.5,34.5 C 1.83333,33.1667 1.83333,33.1667 2.5,34.5 Z"/></g>
<g><path style="opacity:0.008" fill="#000000" d="M 99.5,34.5 C 99.5,34.8333 99.5,35.1667 99.5,35.5C 98.325,35.719 97.325,35.3857 96.5,34.5C 97.2334,33.913 98.2334,33.913 99.5,34.5 Z"/></g>
<g><path style="opacity:0.008" fill="#000000" d="M -0.5,35.5 C -0.5,35.1667 -0.5,34.8333 -0.5,34.5C 0.166667,34.5 0.833333,34.5 1.5,34.5C 1.15829,35.3382 0.491622,35.6716 -0.5,35.5 Z"/></g>
<g><path style="opacity:0.008" fill="#000000" d="M 2.5,34.5 C 3.55198,34.3505 4.55198,34.5172 5.5,35C 4.25057,35.7401 3.25057,35.5735 2.5,34.5 Z"/></g>
<g><path style="opacity:0.008" fill="#000000" d="M 6.5,34.5 C 7.83333,35.1667 7.83333,35.1667 6.5,34.5 Z"/></g>
<g><path style="opacity:0.008" fill="#000000" d="M 8.5,34.5 C 9.83333,35.1667 9.83333,35.1667 8.5,34.5 Z"/></g>
<g><path style="opacity:0.008" fill="#000000" d="M 15.5,36.5 C 13.9142,35.8519 12.2475,35.3519 10.5,35C 11.3333,34.8333 12.1667,34.6667 13,34.5C 14.3756,34.6842 15.2089,35.3509 15.5,36.5 Z"/></g>
<g><path style="opacity:0.793" fill="#040409" d="M 24.5,34.5 C 28.5268,36.8573 32.8602,38.8573 37.5,40.5C 38.2975,40.0431 38.6309,39.3764 38.5,38.5C 39.1667,38.1667 39.8333,37.8333 40.5,37.5C 39.5448,39.7457 38.8782,42.079 38.5,44.5C 38.5,46.1667 38.5,47.8333 38.5,49.5C 37.4639,42.7943 33.4639,40.2943 26.5,42C 25.6198,43.3561 25.2865,44.8561 25.5,46.5C 24.391,46.5569 23.391,46.8902 22.5,47.5C 22.1667,46.1667 21.8333,46.1667 21.5,47.5C 20.8333,47.1667 20.1667,46.8333 19.5,46.5C 19.1667,43.8333 18.8333,43.8333 18.5,46.5C 17.5084,46.3284 16.8417,46.6618 16.5,47.5C 15.603,46.4019 14.7697,46.4019 14,47.5C 14.3685,44.4981 13.5352,41.6648 11.5,39C 12.9007,38.5899 14.234,38.0899 15.5,37.5C 16.8917,38.522 18.225,38.1887 19.5,36.5C 18.624,35.7492 17.624,35.2492 16.5,35C 19.146,34.5026 21.8127,34.3359 24.5,34.5 Z"/></g>
<g><path style="opacity:0.008" fill="#000000" d="M -0.5,37.5 C -0.5,37.1667 -0.5,36.8333 -0.5,36.5C 0.491622,36.3284 1.15829,36.6618 1.5,37.5C 0.833333,37.5 0.166667,37.5 -0.5,37.5 Z"/></g>
<g><path style="opacity:0.008" fill="#000000" d="M 2.5,36.5 C 3.83333,37.1667 3.83333,37.1667 2.5,36.5 Z"/></g>
<g><path style="opacity:0.008" fill="#000000" d="M 4.5,36.5 C 5.83333,37.1667 5.83333,37.1667 4.5,36.5 Z"/></g>
<g><path style="opacity:0.008" fill="#000000" d="M 7.5,39.5 C 7.35055,38.448 7.51722,37.448 8,36.5C 8.46524,37.9308 9.29857,39.0975 10.5,40C 9.42317,40.4696 8.42317,40.3029 7.5,39.5 Z"/></g>
<g><path style="opacity:0.008" fill="#000000" d="M 15.5,36.5 C 16.8333,37.1667 16.8333,37.1667 15.5,36.5 Z"/></g>
<g><path style="opacity:0.008" fill="#000000" d="M 94.5,36.5 C 95.8333,37.1667 95.8333,37.1667 94.5,36.5 Z"/></g>
<g><path style="opacity:0.008" fill="#000000" d="M 96.5,36.5 C 97.8333,37.1667 97.8333,37.1667 96.5,36.5 Z"/></g>
<g><path style="opacity:0.008" fill="#000000" d="M 99.5,36.5 C 99.5,36.8333 99.5,37.1667 99.5,37.5C 98.8299,37.0187 98.8299,36.6853 99.5,36.5 Z"/></g>
<g><path style="opacity:0.008" fill="#000000" d="M 1.5,37.5 C 1.83333,37.5 2.16667,37.5 2.5,37.5C 2.5,37.8333 2.5,38.1667 2.5,38.5C 2.16667,38.1667 1.83333,37.8333 1.5,37.5 Z"/></g>
<g><path style="opacity:0.008" fill="#000000" d="M -0.5,39.5 C -0.5,39.1667 -0.5,38.8333 -0.5,38.5C 0.166667,38.5 0.833333,38.5 1.5,38.5C 1.15829,39.3382 0.491622,39.6716 -0.5,39.5 Z"/></g>
<g><path style="opacity:0.008" fill="#000000" d="M 2.5,38.5 C 3.79105,38.2627 4.79105,38.596 5.5,39.5C 4.16667,39.8333 4.16667,40.1667 5.5,40.5C 7.04192,41.1635 8.70859,41.8302 10.5,42.5C 10.1543,43.6956 9.65431,43.6956 9,42.5C 8.53566,43.0944 8.36899,43.7611 8.5,44.5C 7.77842,44.0825 7.27842,43.4158 7,42.5C 6.61742,43.056 6.11742,43.3893 5.5,43.5C 5.16667,42.1667 4.83333,42.1667 4.5,43.5C 3.07546,45.0311 2.40879,44.6977 2.5,42.5C 3.3543,41.3684 3.3543,40.035 2.5,38.5 Z"/></g>
<g><path style="opacity:1" fill="#f1f018" d="M 62.5,43.5 C 62.4828,45.5648 62.1495,47.5648 61.5,49.5C 55.6031,48.6578 49.9364,47.3245 44.5,45.5C 46.4353,41.8973 49.4353,39.8973 53.5,39.5C 53.5,38.5 53.5,37.5 53.5,36.5C 46.367,35.3875 43.0336,38.3875 43.5,45.5C 42.8333,44.5 42.1667,43.5 41.5,42.5C 42.9734,37.3307 46.4734,34.6641 52,34.5C 57.4992,35.1658 60.9992,38.1658 62.5,43.5 Z"/></g>
<g><path style="opacity:1" fill="#1f365a" d="M 88.5,30.5 C 89.7813,33.4015 92.1146,34.9015 95.5,35C 94.944,35.3826 94.6107,35.8826 94.5,36.5C 91.1612,35.5105 90.8279,36.1771 93.5,38.5C 92.8333,38.5 92.5,38.8333 92.5,39.5C 92.5,40.5 92.5,41.5 92.5,42.5C 91.5,42.5 90.5,42.5 89.5,42.5C 89.5979,40.4471 88.9313,38.7804 87.5,37.5C 84.3811,31.6014 79.7145,29.6014 73.5,31.5C 67.1278,34.248 65.1278,38.9147 67.5,45.5C 67.5,45.8333 67.5,46.1667 67.5,46.5C 67.8333,47.8333 68.1667,49.1667 68.5,50.5C 66.8267,49.657 65.66,48.3237 65,46.5C 64.7679,47.7375 64.2679,48.7375 63.5,49.5C 63.7947,47.2646 63.4614,45.2646 62.5,43.5C 60.9992,38.1658 57.4992,35.1658 52,34.5C 46.4734,34.6641 42.9734,37.3307 41.5,42.5C 40.5386,44.2646 40.2053,46.2646 40.5,48.5C 39.8333,47.1667 39.1667,45.8333 38.5,44.5C 38.8782,42.079 39.5448,39.7457 40.5,37.5C 40.5,36.8333 40.5,36.1667 40.5,35.5C 49.5823,29.4304 57.4156,30.7637 64,39.5C 68.8959,27.3812 76.8959,24.7146 88,31.5C 88.3988,31.2716 88.5654,30.9382 88.5,30.5 Z"/></g>
<g><path style="opacity:1" fill="#f3f18b" d="M 73.5,31.5 C 79.7145,29.6014 84.3811,31.6014 87.5,37.5C 87.5,37.8333 87.5,38.1667 87.5,38.5C 86.71,39.6085 86.21,40.9419 86,42.5C 84.2636,39.2608 81.7636,36.9274 78.5,35.5C 76.8211,35.1077 75.1545,34.6077 73.5,34C 74.3279,33.0853 75.3279,32.4186 76.5,32C 75.552,31.5172 74.552,31.3505 73.5,31.5 Z"/></g>
<g><path style="opacity:1" fill="#f9b60b" d="M 73.5,31.5 C 74.552,31.3505 75.552,31.5172 76.5,32C 75.3279,32.4186 74.3279,33.0853 73.5,34C 75.1545,34.6077 76.8211,35.1077 78.5,35.5C 83.3879,41.8931 81.8879,45.8931 74,47.5C 71.5582,47.5177 69.3915,46.851 67.5,45.5C 65.1278,38.9147 67.1278,34.248 73.5,31.5 Z"/></g>
<g><path style="opacity:0.008" fill="#000000" d="M 99.5,38.5 C 99.5,38.8333 99.5,39.1667 99.5,39.5C 98.1667,39.8333 98.1667,40.1667 99.5,40.5C 99.5,41.8333 99.5,43.1667 99.5,44.5C 98.8333,44.5 98.1667,44.5 97.5,44.5C 97.4431,43.391 97.1098,42.391 96.5,41.5C 97.1001,40.0998 98.1001,39.0998 99.5,38.5 Z"/></g>
<g><path style="opacity:0.008" fill="#000000" d="M 5.5,40.5 C 5.5,40.1667 5.5,39.8333 5.5,39.5C 6.16667,39.5 6.83333,39.5 7.5,39.5C 7.15829,40.3382 6.49162,40.6716 5.5,40.5 Z"/></g>
<g><path style="opacity:1" fill="#463c35" d="M 70.5,38.5 C 73.1662,38.0658 74.3329,39.0658 74,41.5C 70.4034,43.0661 69.2368,42.0661 70.5,38.5 Z"/></g>
<g><path style="opacity:1" fill="#fffe99" d="M 44.5,45.5 C 44.1667,45.5 43.8333,45.5 43.5,45.5C 43.0336,38.3875 46.367,35.3875 53.5,36.5C 53.5,37.5 53.5,38.5 53.5,39.5C 49.4353,39.8973 46.4353,41.8973 44.5,45.5 Z"/></g>
<g><path style="opacity:0.008" fill="#000000" d="M 2.5,42.5 C 1.83333,41.1667 1.83333,41.1667 2.5,42.5 Z"/></g>
<g><path style="opacity:0.008" fill="#000000" d="M 11.5,41.5 C 12.8333,42.1667 12.8333,42.1667 11.5,41.5 Z"/></g>
<g><path style="opacity:0.008" fill="#000000" d="M 1.5,42.5 C 0.833333,43.1667 0.833333,43.1667 1.5,42.5 Z"/></g>
<g><path style="opacity:1" fill="#f8de08" d="M 78.5,35.5 C 81.7636,36.9274 84.2636,39.2608 86,42.5C 86.21,40.9419 86.71,39.6085 87.5,38.5C 88.0481,48.4041 83.3815,52.5707 73.5,51C 71.34,49.668 69.34,48.168 67.5,46.5C 67.5,46.1667 67.5,45.8333 67.5,45.5C 69.3915,46.851 71.5582,47.5177 74,47.5C 81.8879,45.8931 83.3879,41.8931 78.5,35.5 Z"/></g>
<g><path style="opacity:0.008" fill="#000000" d="M -0.5,43.5 C -0.166667,43.5 0.166667,43.5 0.5,43.5C 1.59809,44.397 1.59809,45.2303 0.5,46C 4.09518,46.9737 3.76185,47.8071 -0.5,48.5C -0.5,46.8333 -0.5,45.1667 -0.5,43.5 Z"/></g>
<g><path style="opacity:0.008" fill="#000000" d="M 4.5,43.5 C 4.83333,43.5 5.16667,43.5 5.5,43.5C 5.16667,46.1667 4.83333,46.1667 4.5,43.5 Z"/></g>
<g><path style="opacity:0.008" fill="#000000" d="M 8.5,44.5 C 9.83333,45.1667 9.83333,45.1667 8.5,44.5 Z"/></g>
<g><path style="opacity:0.008" fill="#000000" d="M 10.5,44.5 C 11.8333,45.1667 11.8333,45.1667 10.5,44.5 Z"/></g>
<g><path style="opacity:1" fill="#47453e" d="M 54.5,42.5 C 55.8333,42.5 57.1667,42.5 58.5,42.5C 58.5,43.8333 58.5,45.1667 58.5,46.5C 55.5,46.8333 54.1667,45.5 54.5,42.5 Z"/></g>
<g><path style="opacity:0.008" fill="#000000" d="M 94.5,44.5 C 95.8333,45.1667 95.8333,45.1667 94.5,44.5 Z"/></g>
<g><path style="opacity:0.008" fill="#000000" d="M 97.5,44.5 C 97.8417,45.3382 98.5084,45.6716 99.5,45.5C 99.5,45.8333 99.5,46.1667 99.5,46.5C 98.1329,47.8526 97.1329,47.5193 96.5,45.5C 96.6236,44.8933 96.9569,44.56 97.5,44.5 Z"/></g>
<g><path style="opacity:0.008" fill="#000000" d="M 8.5,45.5 C 8.5,46.1667 8.5,46.8333 8.5,47.5C 8.16667,47.5 7.83333,47.5 7.5,47.5C 7.32842,46.5084 7.66175,45.8417 8.5,45.5 Z"/></g>
<g><path style="opacity:0.008" fill="#000000" d="M 10.5,47.5 C 9.83333,46.1667 9.83333,46.1667 10.5,47.5 Z"/></g>
<g><path style="opacity:0.008" fill="#000000" d="M 11.5,46.5 C 12.8333,47.1667 12.8333,47.1667 11.5,46.5 Z"/></g>
<g><path style="opacity:0.008" fill="#000000" d="M 18.5,46.5 C 18.8333,46.5 19.1667,46.5 19.5,46.5C 19.1667,50.5 18.8333,50.5 18.5,46.5 Z"/></g>
<g><path style="opacity:1" fill="#f5da09" d="M 41.5,42.5 C 42.1667,43.5 42.8333,44.5 43.5,45.5C 43.8333,45.5 44.1667,45.5 44.5,45.5C 49.9364,47.3245 55.6031,48.6578 61.5,49.5C 54.9928,57.4463 48.4928,57.4463 42,49.5C 41.5034,47.1902 41.3367,44.8568 41.5,42.5 Z"/></g>
<g><path style="opacity:0.008" fill="#000000" d="M 4.5,47.5 C 5.83333,48.1667 5.83333,48.1667 4.5,47.5 Z"/></g>
<g><path style="opacity:0.008" fill="#000000" d="M 7.5,47.5 C 6.83333,48.1667 6.83333,48.1667 7.5,47.5 Z"/></g>
<g><path style="opacity:0.008" fill="#000000" d="M 8.5,47.5 C 8.83333,47.5 9.16667,47.5 9.5,47.5C 9.31468,48.1701 8.98135,48.1701 8.5,47.5 Z"/></g>
<g><path style="opacity:0.008" fill="#000000" d="M 10.5,47.5 C 10.8333,47.5 11.1667,47.5 11.5,47.5C 11.3147,48.1701 10.9813,48.1701 10.5,47.5 Z"/></g>
<g><path style="opacity:0.008" fill="#000000" d="M 16.5,47.5 C 17.8333,48.1667 17.8333,48.1667 16.5,47.5 Z"/></g>
<g><path style="opacity:0.008" fill="#000000" d="M 21.5,47.5 C 21.8333,47.5 22.1667,47.5 22.5,47.5C 22.6309,48.3764 22.2975,49.0431 21.5,49.5C 20.537,49.0302 20.537,48.3635 21.5,47.5 Z"/></g>
<g><path style="opacity:1" fill="#aab2c0" d="M 38.5,44.5 C 39.1667,45.8333 39.8333,47.1667 40.5,48.5C 40.5912,50.6977 39.9245,51.0311 38.5,49.5C 38.5,47.8333 38.5,46.1667 38.5,44.5 Z"/></g>
<g><path style="opacity:0.008" fill="#000000" d="M 95.5,47.5 C 96.8333,48.1667 96.8333,48.1667 95.5,47.5 Z"/></g>
<g><path style="opacity:0.008" fill="#000000" d="M 16.5,48.5 C 16.5,48.8333 16.5,49.1667 16.5,49.5C 15.8299,49.0187 15.8299,48.6853 16.5,48.5 Z"/></g>
<g><path style="opacity:0.008" fill="#000000" d="M 15.5,49.5 C 14.8333,50.1667 14.8333,50.1667 15.5,49.5 Z"/></g>
<g><path style="opacity:0.008" fill="#000000" d="M 16.5,49.5 C 17.1667,49.5 17.5,49.8333 17.5,50.5C 17.1667,50.1667 16.8333,49.8333 16.5,49.5 Z"/></g>
<g><path style="opacity:0.008" fill="#000000" d="M 3.5,51.5 C 4.07683,50.2267 4.7435,50.2267 5.5,51.5C 5.03017,52.463 4.3635,52.463 3.5,51.5 Z"/></g>
<g><path style="opacity:0.008" fill="#000000" d="M 14.5,50.5 C 14.5,50.8333 14.5,51.1667 14.5,51.5C 13.8299,51.0187 13.8299,50.6853 14.5,50.5 Z"/></g>
<g><path style="opacity:0.008" fill="#000000" d="M 17.5,50.5 C 18.2891,50.7828 18.9558,51.2828 19.5,52C 18.184,52.5281 17.5173,52.0281 17.5,50.5 Z"/></g>
<g><path style="opacity:0.008" fill="#000000" d="M 21.5,50.5 C 22.8333,51.1667 22.8333,51.1667 21.5,50.5 Z"/></g>
<g><path style="opacity:0.008" fill="#000000" d="M 92.5,50.5 C 95.1368,52.1538 94.8034,52.6538 91.5,52C 92.056,51.6174 92.3893,51.1174 92.5,50.5 Z"/></g>
<g><path style="opacity:0.008" fill="#000000" d="M 0.5,51.5 C 1.83333,52.1667 1.83333,52.1667 0.5,51.5 Z"/></g>
<g><path style="opacity:0.008" fill="#000000" d="M 3.5,51.5 C 2.83333,52.1667 2.83333,52.1667 3.5,51.5 Z"/></g>
<g><path style="opacity:0.008" fill="#000000" d="M 10.5,52.5 C 10.8966,51.475 11.5632,51.3083 12.5,52C 11.9056,52.4643 11.2389,52.631 10.5,52.5 Z"/></g>
<g><path style="opacity:0.008" fill="#000000" d="M 14.5,51.5 C 16.0281,51.5173 16.5281,52.184 16,53.5C 15.2828,52.9558 14.7828,52.2891 14.5,51.5 Z"/></g>
<g><path style="opacity:0.008" fill="#000000" d="M 96.5,51.5 C 97.8333,52.1667 97.8333,52.1667 96.5,51.5 Z"/></g>
<g><path style="opacity:1" fill="#8c7ddc" d="M 68.5,50.5 C 69.7489,52.1361 71.4156,53.3028 73.5,54C 77.2027,54.5787 80.8694,54.412 84.5,53.5C 84.81,56.7131 84.4767,59.7131 83.5,62.5C 81.2353,61.6576 78.902,61.9909 76.5,63.5C 75.6922,61.5767 75.1922,59.5767 75,57.5C 72.828,58.5853 70.828,59.9186 69,61.5C 68.3333,59.5 67.6667,57.5 67,55.5C 64.6255,57.539 62.6255,59.8723 61,62.5C 60.1667,61.5 59.3333,60.5 58.5,59.5C 56.1667,61.5 53.8333,63.5 51.5,65.5C 49.5781,64.289 47.7448,62.9557 46,61.5C 45.51,62.7932 45.3433,64.1266 45.5,65.5C 44.5,65.5 43.5,65.5 42.5,65.5C 42.7148,67.1788 42.0481,68.1788 40.5,68.5C 39.746,63.5365 39.4126,58.5365 39.5,53.5C 45.9998,59.5899 52.9998,60.0899 60.5,55C 62.16,53.5123 63.16,51.679 63.5,49.5C 64.2679,48.7375 64.7679,47.7375 65,46.5C 65.66,48.3237 66.8267,49.657 68.5,50.5 Z"/></g>
<g><path style="opacity:1" fill="#0f1319" d="M 87.5,37.5 C 88.9313,38.7804 89.5979,40.4471 89.5,42.5C 90.5,42.5 91.5,42.5 92.5,42.5C 92.5,41.5 92.5,40.5 92.5,39.5C 93.1667,39.5 93.5,39.1667 93.5,38.5C 94.5,38.5 95.5,38.5 96.5,38.5C 96.5,39.5 96.5,40.5 96.5,41.5C 93.4017,41.4125 93.0684,41.9125 95.5,43C 94.944,43.3826 94.6107,43.8826 94.5,44.5C 93.1667,44.8333 93.1667,45.1667 94.5,45.5C 94.2252,47.8418 93.3919,47.8418 92,45.5C 90.1272,48.1436 89.2938,50.8103 89.5,53.5C 88.9941,51.8946 88.3274,51.5613 87.5,52.5C 86.209,52.2627 85.209,52.596 84.5,53.5C 80.8694,54.412 77.2027,54.5787 73.5,54C 71.4156,53.3028 69.7489,52.1361 68.5,50.5C 68.1667,49.1667 67.8333,47.8333 67.5,46.5C 69.34,48.168 71.34,49.668 73.5,51C 83.3815,52.5707 88.0481,48.4041 87.5,38.5C 87.5,38.1667 87.5,37.8333 87.5,37.5 Z"/></g>
<g><path style="opacity:0.008" fill="#000000" d="M 4.5,55.5 C 4.16667,55.5 3.83333,55.5 3.5,55.5C 3.83333,52.8333 4.16667,52.8333 4.5,55.5 Z"/></g>
<g><path style="opacity:0.008" fill="#000000" d="M 17.5,54.5 C 18.2506,53.4265 19.2506,53.2599 20.5,54C 19.6477,55.7284 18.6477,55.895 17.5,54.5 Z"/></g>
<g><path style="opacity:0.008" fill="#000000" d="M 89.5,53.5 C 88.8333,54.1667 88.8333,54.1667 89.5,53.5 Z"/></g>
<g><path style="opacity:0.008" fill="#000000" d="M 92.5,53.5 C 93.8333,54.1667 93.8333,54.1667 92.5,53.5 Z"/></g>
<g><path style="opacity:0.008" fill="#000000" d="M 96.5,53.5 C 97.8333,54.1667 97.8333,54.1667 96.5,53.5 Z"/></g>
<g><path style="opacity:0.008" fill="#000000" d="M 10.5,54.5 C 11.8333,55.1667 11.8333,55.1667 10.5,54.5 Z"/></g>
<g><path style="opacity:0.008" fill="#000000" d="M 13.5,54.5 C 14.8333,55.1667 14.8333,55.1667 13.5,54.5 Z"/></g>
<g><path style="opacity:0.008" fill="#000000" d="M 15.5,54.5 C 16.8333,55.1667 16.8333,55.1667 15.5,54.5 Z"/></g>
<g><path style="opacity:0.008" fill="#000000" d="M 0.5,55.5 C 1.83333,56.1667 1.83333,56.1667 0.5,55.5 Z"/></g>
<g><path style="opacity:0.008" fill="#000000" d="M 3.5,55.5 C 2.83333,56.1667 2.83333,56.1667 3.5,55.5 Z"/></g>
<g><path style="opacity:0.008" fill="#000000" d="M 4.5,55.5 C 5.83333,56.1667 5.83333,56.1667 4.5,55.5 Z"/></g>
<g><path style="opacity:0.008" fill="#000000" d="M 10.5,55.5 C 9.83333,56.1667 9.83333,56.1667 10.5,55.5 Z"/></g>
<g><path style="opacity:1" fill="#161c26" d="M 41.5,42.5 C 41.3367,44.8568 41.5034,47.1902 42,49.5C 48.4928,57.4463 54.9928,57.4463 61.5,49.5C 62.1495,47.5648 62.4828,45.5648 62.5,43.5C 63.4614,45.2646 63.7947,47.2646 63.5,49.5C 63.16,51.679 62.16,53.5123 60.5,55C 52.9998,60.0899 45.9998,59.5899 39.5,53.5C 39.1667,52.1667 38.8333,50.8333 38.5,49.5C 39.9245,51.0311 40.5912,50.6977 40.5,48.5C 40.2053,46.2646 40.5386,44.2646 41.5,42.5 Z"/></g>
<g><path style="opacity:0.008" fill="#000000" d="M 13.5,57.5 C 14.2506,56.4265 15.2506,56.2599 16.5,57C 15.552,57.4828 14.552,57.6495 13.5,57.5 Z"/></g>
<g><path style="opacity:0.008" fill="#000000" d="M 96.5,56.5 C 97.8333,57.1667 97.8333,57.1667 96.5,56.5 Z"/></g>
<g><path style="opacity:0.008" fill="#000000" d="M 0.5,57.5 C 1.83333,58.1667 1.83333,58.1667 0.5,57.5 Z"/></g>
<g><path style="opacity:0.008" fill="#000000" d="M 19.5,57.5 C 20.8333,58.1667 20.8333,58.1667 19.5,57.5 Z"/></g>
<g><path style="opacity:0.008" fill="#000000" d="M 4.5,59.5 C 3.92317,60.7733 3.2565,60.7733 2.5,59.5C 2.96983,58.537 3.6365,58.537 4.5,59.5 Z"/></g>
<g><path style="opacity:0.008" fill="#000000" d="M 4.5,58.5 C 5.83333,59.1667 5.83333,59.1667 4.5,58.5 Z"/></g>
<g><path style="opacity:0.008" fill="#000000" d="M 11.5,58.5 C 12.8333,59.1667 12.8333,59.1667 11.5,58.5 Z"/></g>
<g><path style="opacity:0.008" fill="#000000" d="M 21.5,58.5 C 22.8333,59.1667 22.8333,59.1667 21.5,58.5 Z"/></g>
<g><path style="opacity:0.008" fill="#000000" d="M 91.5,60.5 C 91.369,59.7611 91.5357,59.0944 92,58.5C 92.6917,59.4368 92.525,60.1034 91.5,60.5 Z"/></g>
<g><path style="opacity:0.008" fill="#000000" d="M -0.5,59.5 C 0.833333,60.1667 0.833333,60.1667 -0.5,59.5 Z"/></g>
<g><path style="opacity:0.008" fill="#000000" d="M 6.5,59.5 C 7.83333,60.1667 7.83333,60.1667 6.5,59.5 Z"/></g>
<g><path style="opacity:0.008" fill="#000000" d="M 15.5,61.5 C 14.9569,61.44 14.6236,61.1067 14.5,60.5C 15.365,59.4173 16.365,59.2506 17.5,60C 16.5842,60.2784 15.9175,60.7784 15.5,61.5 Z"/></g>
<g><path style="opacity:0.008" fill="#000000" d="M 19.5,60.5 C 18.8333,59.1667 18.8333,59.1667 19.5,60.5 Z"/></g>
<g><path style="opacity:0.008" fill="#000000" d="M 86.5,60.5 C 86.5,60.1667 86.5,59.8333 86.5,59.5C 88.1993,59.5271 89.5326,60.1938 90.5,61.5C 90.5,61.8333 90.5,62.1667 90.5,62.5C 89.5041,62.4142 88.6708,62.7476 88,63.5C 87.3828,62.5509 87.5494,61.7175 88.5,61C 87.9056,60.5357 87.2389,60.369 86.5,60.5 Z"/></g>
<g><path style="opacity:0.008" fill="#000000" d="M 94.5,59.5 C 95.8333,60.1667 95.8333,60.1667 94.5,59.5 Z"/></g>
<g><path style="opacity:0.008" fill="#000000" d="M 99.5,59.5 C 99.5,59.8333 99.5,60.1667 99.5,60.5C 95.5,60.1667 95.5,59.8333 99.5,59.5 Z"/></g>
<g><path style="opacity:0.008" fill="#000000" d="M 19.5,60.5 C 20.525,60.8966 20.6917,61.5632 20,62.5C 19.5357,61.9056 19.369,61.2389 19.5,60.5 Z"/></g>
<g><path style="opacity:0.008" fill="#000000" d="M 91.5,60.5 C 90.8333,61.1667 90.8333,61.1667 91.5,60.5 Z"/></g>
<g><path style="opacity:0.008" fill="#000000" d="M 94.5,60.5 C 94.5,60.8333 94.5,61.1667 94.5,61.5C 93.8299,61.0187 93.8299,60.6853 94.5,60.5 Z"/></g>
<g><path style="opacity:0.008" fill="#000000" d="M -0.5,62.5 C -0.5,62.1667 -0.5,61.8333 -0.5,61.5C 2.16667,61.8333 2.16667,62.1667 -0.5,62.5 Z"/></g>
<g><path style="opacity:0.008" fill="#000000" d="M 2.5,61.5 C 3.83333,62.1667 3.83333,62.1667 2.5,61.5 Z"/></g>
<g><path style="opacity:0.008" fill="#000000" d="M 4.5,61.5 C 5.83333,62.1667 5.83333,62.1667 4.5,61.5 Z"/></g>
<g><path style="opacity:0.008" fill="#000000" d="M 7.5,63.5 C 7.36899,62.7611 7.53566,62.0944 8,61.5C 8.69169,62.4368 8.52502,63.1034 7.5,63.5 Z"/></g>
<g><path style="opacity:0.008" fill="#000000" d="M 15.5,61.5 C 16.8333,62.1667 16.8333,62.1667 15.5,61.5 Z"/></g>
<g><path style="opacity:0.008" fill="#000000" d="M 94.5,61.5 C 95.8333,62.1667 95.8333,62.1667 94.5,61.5 Z"/></g>
<g><path style="opacity:0.008" fill="#000000" d="M 96.5,61.5 C 97.8333,62.1667 97.8333,62.1667 96.5,61.5 Z"/></g>
<g><path style="opacity:0.008" fill="#000000" d="M 99.5,61.5 C 99.5,61.8333 99.5,62.1667 99.5,62.5C 98.8299,62.0187 98.8299,61.6853 99.5,61.5 Z"/></g>
<g><path style="opacity:0.008" fill="#000000" d="M 15.5,62.5 C 15.5,63.8333 14.8333,64.5 13.5,64.5C 13.8333,63.5 14.5,62.8333 15.5,62.5 Z"/></g>
<g><path style="opacity:0.008" fill="#000000" d="M 17.5,62.5 C 18.7733,63.0768 18.7733,63.7435 17.5,64.5C 16.537,64.0302 16.537,63.3635 17.5,62.5 Z"/></g>
<g><path style="opacity:0.094" fill="#000002" d="M 26.5,64.5 C 27.2681,71.8379 28.7681,79.1713 31,86.5C 34.5399,91.217 39.0399,94.5504 44.5,96.5C 47.4919,95.5081 49.4919,93.5081 50.5,90.5C 51.1667,90.5 51.8333,90.5 52.5,90.5C 53.4196,93.0694 52.7529,95.4027 50.5,97.5C 46.0178,98.1669 41.6845,98.8336 37.5,99.5C 37.1667,99.5 36.8333,99.5 36.5,99.5C 36.0825,98.7784 35.4158,98.2784 34.5,98C 34.8333,97.6667 35.1667,97.3333 35.5,97C 34.552,96.5172 33.552,96.3505 32.5,96.5C 32.631,95.7611 32.4643,95.0944 32,94.5C 30.5098,95.7279 29.0098,95.7279 27.5,94.5C 26.2101,92.0134 25.2101,92.3467 24.5,95.5C 24.4669,94.011 23.9669,92.6776 23,91.5C 21.7163,92.5719 21.3829,93.9052 22,95.5C 21.2588,94.3595 20.4255,94.3595 19.5,95.5C 18.7025,95.0431 18.3691,94.3764 18.5,93.5C 19.3909,92.7387 20.0576,91.7387 20.5,90.5C 17.814,89.9397 16.1473,88.9397 15.5,87.5C 14.9943,84.329 13.3276,81.9957 10.5,80.5C 10.1963,77.4004 8.86297,74.9004 6.5,73C 7.26378,70.9307 7.76378,68.764 8,66.5C 8.95697,68.7092 10.1236,68.5425 11.5,66C 10.944,65.6174 10.6107,65.1174 10.5,64.5C 11.5,64.5 12.5,64.5 13.5,64.5C 16.0449,66.6364 18.7116,66.8031 21.5,65C 19.0989,64.195 19.2656,63.3617 22,62.5C 23.3139,63.3128 24.4805,64.3128 25.5,65.5C 26.1067,65.3764 26.44,65.0431 26.5,64.5 Z"/></g>
<g><path style="opacity:0.992" fill="#503fa6" d="M 38.5,49.5 C 38.8333,50.8333 39.1667,52.1667 39.5,53.5C 39.4126,58.5365 39.746,63.5365 40.5,68.5C 40.05,76.9791 40.7167,85.3124 42.5,93.5C 44.1667,93.5 45.8333,93.5 47.5,93.5C 47.183,90.4655 48.183,89.4655 50.5,90.5C 49.4919,93.5081 47.4919,95.5081 44.5,96.5C 39.0399,94.5504 34.5399,91.217 31,86.5C 28.7681,79.1713 27.2681,71.8379 26.5,64.5C 25.8288,63.1529 25.8288,61.9862 26.5,61C 25.8333,60.6667 25.1667,60.3333 24.5,60C 25.3567,59.3109 26.0233,58.4776 26.5,57.5C 25.5741,53.9062 25.2408,50.2396 25.5,46.5C 25.2865,44.8561 25.6198,43.3561 26.5,42C 33.4639,40.2943 37.4639,42.7943 38.5,49.5 Z"/></g>
<g><path style="opacity:0.008" fill="#000000" d="M 90.5,62.5 C 91.8333,63.1667 91.8333,63.1667 90.5,62.5 Z"/></g>
<g><path style="opacity:0.008" fill="#000000" d="M 92.5,62.5 C 93.2891,62.7828 93.9558,63.2828 94.5,64C 93.184,64.5281 92.5173,64.0281 92.5,62.5 Z"/></g>
<g><path style="opacity:0.008" fill="#000000" d="M -0.5,63.5 C 0.491622,63.3284 1.15829,63.6618 1.5,64.5C 0.833333,64.8333 0.166667,65.1667 -0.5,65.5C -0.5,64.8333 -0.5,64.1667 -0.5,63.5 Z"/></g>
<g><path style="opacity:0.008" fill="#000000" d="M 2.5,64.5 C 3.07683,63.2267 3.7435,63.2267 4.5,64.5C 4.03017,65.463 3.3635,65.463 2.5,64.5 Z"/></g>
<g><path style="opacity:0.008" fill="#000000" d="M 7.5,63.5 C 6.83333,64.1667 6.83333,64.1667 7.5,63.5 Z"/></g>
<g><path style="opacity:0.008" fill="#000000" d="M 10.5,64.5 C 9.83333,63.1667 9.83333,63.1667 10.5,64.5 Z"/></g>
<g><path style="opacity:0.008" fill="#000000" d="M 90.5,63.5 C 89.8333,64.1667 89.8333,64.1667 90.5,63.5 Z"/></g>
<g><path style="opacity:0.008" fill="#000000" d="M 95.5,63.5 C 96.8333,64.1667 96.8333,64.1667 95.5,63.5 Z"/></g>
<g><path style="opacity:0.008" fill="#000000" d="M 99.5,63.5 C 99.5,63.8333 99.5,64.1667 99.5,64.5C 98.8333,64.8333 98.1667,65.1667 97.5,65.5C 97.5,64.1667 98.1667,63.5 99.5,63.5 Z"/></g>
<g><path style="opacity:0.008" fill="#000000" d="M 1.5,64.5 C 1.83333,64.5 2.16667,64.5 2.5,64.5C 2.5,65.5 2.5,66.5 2.5,67.5C 2.16667,67.5 1.83333,67.5 1.5,67.5C 1.5,66.5 1.5,65.5 1.5,64.5 Z"/></g>
<g><path style="opacity:0.008" fill="#000000" d="M 9.5,64.5 C 8.83333,65.1667 8.83333,65.1667 9.5,64.5 Z"/></g>
<g><path style="opacity:1" fill="#ceced2" d="M 83.5,62.5 C 82.0106,64.8051 80.5106,67.1384 79,69.5C 68.1599,65.1812 57.4933,65.5145 47,70.5C 46.3923,68.8455 45.8923,67.1789 45.5,65.5C 45.3433,64.1266 45.51,62.7932 46,61.5C 47.7448,62.9557 49.5781,64.289 51.5,65.5C 53.8333,63.5 56.1667,61.5 58.5,59.5C 59.3333,60.5 60.1667,61.5 61,62.5C 62.6255,59.8723 64.6255,57.539 67,55.5C 67.6667,57.5 68.3333,59.5 69,61.5C 70.828,59.9186 72.828,58.5853 75,57.5C 75.1922,59.5767 75.6922,61.5767 76.5,63.5C 78.902,61.9909 81.2353,61.6576 83.5,62.5 Z"/></g>
<g><path style="opacity:0.008" fill="#000000" d="M 97.5,65.5 C 97.5,66.1667 97.5,66.8333 97.5,67.5C 96.1667,66.8333 96.1667,66.1667 97.5,65.5 Z"/></g>
<g><path style="opacity:0.008" fill="#000000" d="M 4.5,68.5 C 3.07546,70.0311 2.40879,69.6977 2.5,67.5C 3.92454,65.9689 4.59121,66.3023 4.5,68.5 Z"/></g>
<g><path style="opacity:0.008" fill="#000000" d="M 5.5,68.5 C 5.36899,67.7611 5.53566,67.0944 6,66.5C 6.69169,67.4368 6.52502,68.1034 5.5,68.5 Z"/></g>
<g><path style="opacity:0.008" fill="#000000" d="M 95.5,70.5 C 94.2502,70.4226 93.4169,69.756 93,68.5C 92.296,70.727 91.1294,71.0603 89.5,69.5C 89.5,68.8333 89.5,68.1667 89.5,67.5C 90.8804,68.7065 92.0471,68.3731 93,66.5C 93.7504,67.1258 94.5838,67.6258 95.5,68C 94.4019,68.7697 94.4019,69.603 95.5,70.5 Z"/></g>
<g><path style="opacity:0.008" fill="#000000" d="M 99.5,66.5 C 99.5,67.8333 99.5,69.1667 99.5,70.5C 98.8333,70.1667 98.1667,69.8333 97.5,69.5C 97.5,68.8333 97.5,68.1667 97.5,67.5C 98.1667,67.1667 98.8333,66.8333 99.5,66.5 Z"/></g>
<g><path style="opacity:0.008" fill="#000000" d="M 1.5,67.5 C 0.833333,68.1667 0.833333,68.1667 1.5,67.5 Z"/></g>
<g><path style="opacity:0.008" fill="#000000" d="M -0.5,68.5 C -0.166667,68.5 0.166667,68.5 0.5,68.5C 0.67158,69.4916 0.338246,70.1583 -0.5,70.5C -0.5,69.8333 -0.5,69.1667 -0.5,68.5 Z"/></g>
<g><path style="opacity:0.008" fill="#000000" d="M 4.5,68.5 C 4.83333,68.5 5.16667,68.5 5.5,68.5C 5.5,69.1667 5.5,69.8333 5.5,70.5C 4.66175,70.1583 4.32842,69.4916 4.5,68.5 Z"/></g>
<g><path style="opacity:0.008" fill="#000000" d="M 89.5,69.5 C 88.8333,70.1667 88.8333,70.1667 89.5,69.5 Z"/></g>
<g><path style="opacity:0.008" fill="#000000" d="M 97.5,69.5 C 96.8333,70.1667 96.8333,70.1667 97.5,69.5 Z"/></g>
<g><path style="opacity:0.008" fill="#000000" d="M 5.5,70.5 C 6.83333,71.1667 6.83333,71.1667 5.5,70.5 Z"/></g>
<g><path style="opacity:0.008" fill="#000000" d="M 95.5,70.5 C 95.8333,70.5 96.1667,70.5 96.5,70.5C 96.3147,71.1701 95.9813,71.1701 95.5,70.5 Z"/></g>
<g><path style="opacity:0.008" fill="#000000" d="M 2.5,72.5 C 2.89657,71.475 3.56323,71.3083 4.5,72C 3.90558,72.4643 3.23891,72.631 2.5,72.5 Z"/></g>
<g><path style="opacity:0.008" fill="#000000" d="M 90.5,72.5 C 90.8966,71.475 91.5632,71.3083 92.5,72C 91.9056,72.4643 91.2389,72.631 90.5,72.5 Z"/></g>
<g><path style="opacity:0.008" fill="#000000" d="M 95.5,71.5 C 94.8333,72.1667 94.8333,72.1667 95.5,71.5 Z"/></g>
<g><path style="opacity:1" fill="#655bbb" d="M 87.5,52.5 C 87.3601,54.1238 88.0267,55.2904 89.5,56C 87.9443,56.7202 86.9443,57.8868 86.5,59.5C 86.5,59.8333 86.5,60.1667 86.5,60.5C 86.3379,62.5273 86.5045,64.5273 87,66.5C 88.4609,65.1175 89.2942,65.4508 89.5,67.5C 88.325,67.281 87.325,67.6143 86.5,68.5C 87.4339,71.9633 87.4339,75.6299 86.5,79.5C 87.376,80.2508 88.376,80.7508 89.5,81C 87.563,81.1216 86.2297,81.955 85.5,83.5C 84.8826,83.3893 84.3826,83.056 84,82.5C 82.9705,85.8753 80.8039,87.0419 77.5,86C 74.9813,78.0734 69.648,75.4068 61.5,78C 59.5743,78.4224 58.5743,79.5891 58.5,81.5C 55.167,83.1587 53.5003,85.8254 53.5,89.5C 52.8333,89.5 52.5,89.8333 52.5,90.5C 51.8333,90.5 51.1667,90.5 50.5,90.5C 48.183,89.4655 47.183,90.4655 47.5,93.5C 45.8333,93.5 44.1667,93.5 42.5,93.5C 40.7167,85.3124 40.05,76.9791 40.5,68.5C 42.0481,68.1788 42.7148,67.1788 42.5,65.5C 43.5,65.5 44.5,65.5 45.5,65.5C 45.8923,67.1789 46.3923,68.8455 47,70.5C 57.4933,65.5145 68.1599,65.1812 79,69.5C 80.5106,67.1384 82.0106,64.8051 83.5,62.5C 84.4767,59.7131 84.81,56.7131 84.5,53.5C 85.209,52.596 86.209,52.2627 87.5,52.5 Z"/></g>
<g><path style="opacity:1" fill="#5140bc" d="M 53.5,69.5 C 60.175,69.3337 66.8417,69.5004 73.5,70C 76.3771,70.9562 79.0438,72.2895 81.5,74C 70.4601,70.9658 59.2934,70.7992 48,73.5C 47.5,73.3333 47,73.1667 46.5,73C 48.9252,71.7874 51.2585,70.6207 53.5,69.5 Z"/></g>
<g><path style="opacity:0.008" fill="#000000" d="M 3.5,76.5 C 4.07683,75.2267 4.7435,75.2267 5.5,76.5C 5.03017,77.463 4.3635,77.463 3.5,76.5 Z"/></g>
<g><path style="opacity:0.008" fill="#000000" d="M 89.5,78.5 C 88.2028,75.3966 88.5362,75.0633 90.5,77.5C 90.3764,78.1067 90.0431,78.44 89.5,78.5 Z"/></g>
<g><path style="opacity:0.008" fill="#000000" d="M 92.5,75.5 C 95.1368,77.1538 94.8034,77.6538 91.5,77C 92.056,76.6174 92.3893,76.1174 92.5,75.5 Z"/></g>
<g><path style="opacity:0.008" fill="#000000" d="M 0.5,76.5 C 1.83333,77.1667 1.83333,77.1667 0.5,76.5 Z"/></g>
<g><path style="opacity:0.008" fill="#000000" d="M 3.5,76.5 C 2.83333,77.1667 2.83333,77.1667 3.5,76.5 Z"/></g>
<g><path style="opacity:0.008" fill="#000000" d="M 96.5,76.5 C 97.8333,77.1667 97.8333,77.1667 96.5,76.5 Z"/></g>
<g><path style="opacity:0.008" fill="#000000" d="M 4.5,80.5 C 4.16667,80.5 3.83333,80.5 3.5,80.5C 3.83333,77.8333 4.16667,77.8333 4.5,80.5 Z"/></g>
<g><path style="opacity:0.008" fill="#000000" d="M 89.5,78.5 C 88.8333,79.1667 88.8333,79.1667 89.5,78.5 Z"/></g>
<g><path style="opacity:0.008" fill="#000000" d="M 92.5,78.5 C 93.8333,79.1667 93.8333,79.1667 92.5,78.5 Z"/></g>
<g><path style="opacity:0.008" fill="#000000" d="M 96.5,78.5 C 97.8333,79.1667 97.8333,79.1667 96.5,78.5 Z"/></g>
<g><path style="opacity:0.149" fill="#030207" d="M 85.5,84.5 C 87.5542,84.3653 89.2209,85.032 90.5,86.5C 90.5,86.8333 90.5,87.1667 90.5,87.5C 89.5041,87.4142 88.6708,87.7476 88,88.5C 88.0773,87.2624 87.9106,86.2624 87.5,85.5C 86.2371,87.0287 85.2371,88.6954 84.5,90.5C 81.9455,91.388 79.2788,91.7214 76.5,91.5C 76.4261,95.5412 75.0928,96.2079 72.5,93.5C 72.9767,92.5224 73.6433,91.6891 74.5,91C 73.8333,90.6667 73.1667,90.3333 72.5,90C 68.1661,89.1927 63.9994,88.3594 60,87.5C 58.2098,88.2849 56.5431,88.2849 55,87.5C 54.7216,88.4158 54.2216,89.0825 53.5,89.5C 53.5003,85.8254 55.167,83.1587 58.5,81.5C 60.1573,80.4245 61.9907,79.7579 64,79.5C 68.8593,83.265 74.1926,86.265 80,88.5C 82.5345,88.1323 84.3678,86.799 85.5,84.5 Z"/></g>
<g><path style="opacity:0.008" fill="#000000" d="M 0.5,80.5 C 1.83333,81.1667 1.83333,81.1667 0.5,80.5 Z"/></g>
<g><path style="opacity:0.008" fill="#000000" d="M 3.5,80.5 C 2.83333,81.1667 2.83333,81.1667 3.5,80.5 Z"/></g>
<g><path style="opacity:0.008" fill="#000000" d="M 4.5,80.5 C 5.83333,81.1667 5.83333,81.1667 4.5,80.5 Z"/></g>
<g><path style="opacity:0.008" fill="#000000" d="M 10.5,80.5 C 9.83333,81.1667 9.83333,81.1667 10.5,80.5 Z"/></g>
<g><path style="opacity:0.008" fill="#000000" d="M 96.5,81.5 C 97.8333,82.1667 97.8333,82.1667 96.5,81.5 Z"/></g>
<g><path style="opacity:0.008" fill="#000000" d="M 0.5,82.5 C 1.83333,83.1667 1.83333,83.1667 0.5,82.5 Z"/></g>
<g><path style="opacity:0.008" fill="#000000" d="M 4.5,84.5 C 3.92317,85.7733 3.2565,85.7733 2.5,84.5C 2.96983,83.537 3.6365,83.537 4.5,84.5 Z"/></g>
<g><path style="opacity:0.008" fill="#000000" d="M 4.5,83.5 C 5.83333,84.1667 5.83333,84.1667 4.5,83.5 Z"/></g>
<g><path style="opacity:0.008" fill="#000000" d="M 11.5,83.5 C 12.8333,84.1667 12.8333,84.1667 11.5,83.5 Z"/></g>
<g><path style="opacity:0.008" fill="#000000" d="M 91.5,85.5 C 91.369,84.7611 91.5357,84.0944 92,83.5C 92.6917,84.4368 92.525,85.1034 91.5,85.5 Z"/></g>
<g><path style="opacity:0.008" fill="#000000" d="M -0.5,84.5 C 0.833333,85.1667 0.833333,85.1667 -0.5,84.5 Z"/></g>
<g><path style="opacity:0.008" fill="#000000" d="M 6.5,84.5 C 7.83333,85.1667 7.83333,85.1667 6.5,84.5 Z"/></g>
<g><path style="opacity:0.008" fill="#000000" d="M 94.5,84.5 C 95.8333,85.1667 95.8333,85.1667 94.5,84.5 Z"/></g>
<g><path style="opacity:0.008" fill="#000000" d="M 99.5,84.5 C 99.5,84.8333 99.5,85.1667 99.5,85.5C 95.5,85.1667 95.5,84.8333 99.5,84.5 Z"/></g>
<g><path style="opacity:0.906" fill="#4c3da4" d="M 85.5,83.5 C 85.5,83.8333 85.5,84.1667 85.5,84.5C 84.3678,86.799 82.5345,88.1323 80,88.5C 74.1926,86.265 68.8593,83.265 64,79.5C 61.9907,79.7579 60.1573,80.4245 58.5,81.5C 58.5743,79.5891 59.5743,78.4224 61.5,78C 69.648,75.4068 74.9813,78.0734 77.5,86C 80.8039,87.0419 82.9705,85.8753 84,82.5C 84.3826,83.056 84.8826,83.3893 85.5,83.5 Z"/></g>
<g><path style="opacity:0.008" fill="#000000" d="M 91.5,85.5 C 90.8333,86.1667 90.8333,86.1667 91.5,85.5 Z"/></g>
<g><path style="opacity:0.008" fill="#000000" d="M 94.5,85.5 C 94.5,85.8333 94.5,86.1667 94.5,86.5C 93.8299,86.0187 93.8299,85.6853 94.5,85.5 Z"/></g>
<g><path style="opacity:0.008" fill="#000000" d="M -0.5,87.5 C -0.5,87.1667 -0.5,86.8333 -0.5,86.5C 2.16667,86.8333 2.16667,87.1667 -0.5,87.5 Z"/></g>
<g><path style="opacity:0.008" fill="#000000" d="M 2.5,86.5 C 3.83333,87.1667 3.83333,87.1667 2.5,86.5 Z"/></g>
<g><path style="opacity:0.008" fill="#000000" d="M 4.5,86.5 C 5.83333,87.1667 5.83333,87.1667 4.5,86.5 Z"/></g>
<g><path style="opacity:0.008" fill="#000000" d="M 7.5,88.5 C 7.36899,87.7611 7.53566,87.0944 8,86.5C 8.69169,87.4368 8.52502,88.1034 7.5,88.5 Z"/></g>
<g><path style="opacity:0.008" fill="#000000" d="M 94.5,86.5 C 95.8333,87.1667 95.8333,87.1667 94.5,86.5 Z"/></g>
<g><path style="opacity:0.008" fill="#000000" d="M 96.5,86.5 C 97.8333,87.1667 97.8333,87.1667 96.5,86.5 Z"/></g>
<g><path style="opacity:0.008" fill="#000000" d="M 99.5,86.5 C 99.5,86.8333 99.5,87.1667 99.5,87.5C 98.8299,87.0187 98.8299,86.6853 99.5,86.5 Z"/></g>
<g><path style="opacity:0.008" fill="#000000" d="M 15.5,87.5 C 15.5,88.8333 14.8333,89.5 13.5,89.5C 13.8333,88.5 14.5,87.8333 15.5,87.5 Z"/></g>
<g><path style="opacity:0.008" fill="#000000" d="M 90.5,87.5 C 91.8333,88.1667 91.8333,88.1667 90.5,87.5 Z"/></g>
<g><path style="opacity:0.008" fill="#000000" d="M 92.5,87.5 C 93.2891,87.7828 93.9558,88.2828 94.5,89C 93.184,89.5281 92.5173,89.0281 92.5,87.5 Z"/></g>
<g><path style="opacity:0.008" fill="#000000" d="M -0.5,88.5 C 0.491622,88.3284 1.15829,88.6618 1.5,89.5C 0.833333,89.8333 0.166667,90.1667 -0.5,90.5C -0.5,89.8333 -0.5,89.1667 -0.5,88.5 Z"/></g>
<g><path style="opacity:0.008" fill="#000000" d="M 2.5,89.5 C 3.07683,88.2267 3.7435,88.2267 4.5,89.5C 4.03017,90.463 3.3635,90.463 2.5,89.5 Z"/></g>
<g><path style="opacity:0.008" fill="#000000" d="M 7.5,88.5 C 6.83333,89.1667 6.83333,89.1667 7.5,88.5 Z"/></g>
<g><path style="opacity:0.008" fill="#000000" d="M 10.5,89.5 C 9.83333,88.1667 9.83333,88.1667 10.5,89.5 Z"/></g>
<g><path style="opacity:0.008" fill="#000000" d="M 90.5,88.5 C 89.8333,89.1667 89.8333,89.1667 90.5,88.5 Z"/></g>
<g><path style="opacity:0.008" fill="#000000" d="M 95.5,88.5 C 96.8333,89.1667 96.8333,89.1667 95.5,88.5 Z"/></g>
<g><path style="opacity:0.008" fill="#000000" d="M 99.5,88.5 C 99.5,88.8333 99.5,89.1667 99.5,89.5C 98.8333,89.8333 98.1667,90.1667 97.5,90.5C 97.5,89.1667 98.1667,88.5 99.5,88.5 Z"/></g>
<g><path style="opacity:0.008" fill="#000000" d="M 1.5,89.5 C 1.83333,89.5 2.16667,89.5 2.5,89.5C 2.5,90.5 2.5,91.5 2.5,92.5C 2.16667,92.5 1.83333,92.5 1.5,92.5C 1.5,91.5 1.5,90.5 1.5,89.5 Z"/></g>
<g><path style="opacity:0.008" fill="#000000" d="M 9.5,89.5 C 8.83333,90.1667 8.83333,90.1667 9.5,89.5 Z"/></g>
<g><path style="opacity:0.008" fill="#000000" d="M 10.5,89.5 C 11.5,89.5 12.5,89.5 13.5,89.5C 14.8484,90.1859 16.015,91.1859 17,92.5C 18.1068,91.2881 18.6068,91.6214 18.5,93.5C 17.6981,94.9516 17.1981,96.6183 17,98.5C 16.7165,96.1144 15.7165,95.4477 14,96.5C 13.51,95.2068 13.3433,93.8734 13.5,92.5C 12.5,92.5 11.5,92.5 10.5,92.5C 11.8333,91.5 11.8333,90.5 10.5,89.5 Z"/></g>
<g><path style="opacity:0.008" fill="#000000" d="M 64.5,92.5 C 62.712,92.7852 61.0453,92.4519 59.5,91.5C 60.8333,91.1667 62.1667,90.8333 63.5,90.5C 64.2975,90.9569 64.6309,91.6236 64.5,92.5 Z"/></g>
<g><path style="opacity:0.008" fill="#000000" d="M 84.5,90.5 C 85.9403,91.3629 87.2736,91.3629 88.5,90.5C 89.2975,90.9569 89.6309,91.6236 89.5,92.5C 87.2188,92.9227 85.5521,92.256 84.5,90.5 Z"/></g>
<g><path style="opacity:0.008" fill="#000000" d="M 97.5,90.5 C 97.5,91.1667 97.5,91.8333 97.5,92.5C 96.1667,91.8333 96.1667,91.1667 97.5,90.5 Z"/></g>
<g><path style="opacity:0.008" fill="#000000" d="M 4.5,93.5 C 3.07546,95.0311 2.40879,94.6977 2.5,92.5C 3.92454,90.9689 4.59121,91.3023 4.5,93.5 Z"/></g>
<g><path style="opacity:0.008" fill="#000000" d="M 5.5,93.5 C 5.36899,92.7611 5.53566,92.0944 6,91.5C 6.69169,92.4368 6.52502,93.1034 5.5,93.5 Z"/></g>
<g><path style="opacity:0.008" fill="#000000" d="M 8.5,94.5 C 7.42654,93.7494 7.25988,92.7494 8,91.5C 8.48278,92.448 8.64945,93.448 8.5,94.5 Z"/></g>
<g><path style="opacity:0.008" fill="#000000" d="M 64.5,94.5 C 64.5,93.8333 64.5,93.1667 64.5,92.5C 65.8804,93.7065 67.0471,93.3731 68,91.5C 68.7504,92.1258 69.5838,92.6258 70.5,93C 70.0698,93.9195 69.7365,94.7528 69.5,95.5C 68.8076,94.9747 68.3076,94.3081 68,93.5C 67.296,95.727 66.1294,96.0603 64.5,94.5 Z"/></g>
<g><path style="opacity:0.008" fill="#000000" d="M 95.5,95.5 C 94.2502,95.4226 93.4169,94.756 93,93.5C 92.296,95.727 91.1294,96.0603 89.5,94.5C 89.5,93.8333 89.5,93.1667 89.5,92.5C 90.8804,93.7065 92.0471,93.3731 93,91.5C 93.7504,92.1258 94.5838,92.6258 95.5,93C 94.4019,93.7697 94.4019,94.603 95.5,95.5 Z"/></g>
<g><path style="opacity:0.008" fill="#000000" d="M 99.5,91.5 C 99.5,92.8333 99.5,94.1667 99.5,95.5C 98.8333,95.1667 98.1667,94.8333 97.5,94.5C 97.5,93.8333 97.5,93.1667 97.5,92.5C 98.1667,92.1667 98.8333,91.8333 99.5,91.5 Z"/></g>
<g><path style="opacity:0.008" fill="#000000" d="M 1.5,92.5 C 0.833333,93.1667 0.833333,93.1667 1.5,92.5 Z"/></g>
<g><path style="opacity:0.008" fill="#000000" d="M 10.5,92.5 C 9.83333,93.1667 9.83333,93.1667 10.5,92.5 Z"/></g>
<g><path style="opacity:0.008" fill="#000000" d="M 54.5,92.5 C 55.2216,92.9175 55.7216,93.5842 56,94.5C 56.8928,93.2888 57.7261,93.2888 58.5,94.5C 56.9255,95.6309 55.2588,95.7975 53.5,95C 54.2524,94.3292 54.5858,93.4959 54.5,92.5 Z"/></g>
<g><path style="opacity:0.008" fill="#000000" d="M 79.5,92.5 C 80.2216,92.9175 80.7216,93.5842 81,94.5C 81.8928,93.2888 82.7261,93.2888 83.5,94.5C 81.9255,95.6309 80.2588,95.7975 78.5,95C 79.2524,94.3292 79.5858,93.4959 79.5,92.5 Z"/></g>
<g><path style="opacity:0.008" fill="#000000" d="M -0.5,93.5 C -0.166667,93.5 0.166667,93.5 0.5,93.5C 0.67158,94.4916 0.338246,95.1583 -0.5,95.5C -0.5,94.8333 -0.5,94.1667 -0.5,93.5 Z"/></g>
<g><path style="opacity:0.008" fill="#000000" d="M 4.5,93.5 C 4.83333,93.5 5.16667,93.5 5.5,93.5C 5.5,94.1667 5.5,94.8333 5.5,95.5C 4.66175,95.1583 4.32842,94.4916 4.5,93.5 Z"/></g>
<g><path style="opacity:0.008" fill="#000000" d="M 59.5,93.5 C 60.525,93.8966 60.6917,94.5632 60,95.5C 59.5357,94.9056 59.369,94.2389 59.5,93.5 Z"/></g>
<g><path style="opacity:0.008" fill="#000000" d="M 84.5,93.5 C 85.525,93.8966 85.6917,94.5632 85,95.5C 84.5357,94.9056 84.369,94.2389 84.5,93.5 Z"/></g>
<g><path style="opacity:0.008" fill="#000000" d="M 8.5,94.5 C 9.83333,95.1667 9.83333,95.1667 8.5,94.5 Z"/></g>
<g><path style="opacity:0.008" fill="#000000" d="M 11.5,96.5 C 11.369,95.7611 11.5357,95.0944 12,94.5C 12.6917,95.4368 12.525,96.1034 11.5,96.5 Z"/></g>
<g><path style="opacity:0.008" fill="#000000" d="M 27.5,94.5 C 26.8333,95.1667 26.8333,95.1667 27.5,94.5 Z"/></g>
<g><path style="opacity:0.008" fill="#000000" d="M 61.5,94.5 C 62.8333,95.1667 62.8333,95.1667 61.5,94.5 Z"/></g>
<g><path style="opacity:0.008" fill="#000000" d="M 64.5,94.5 C 63.8333,95.1667 63.8333,95.1667 64.5,94.5 Z"/></g>
<g><path style="opacity:0.008" fill="#000000" d="M 86.5,94.5 C 87.8333,95.1667 87.8333,95.1667 86.5,94.5 Z"/></g>
<g><path style="opacity:0.008" fill="#000000" d="M 89.5,94.5 C 88.8333,95.1667 88.8333,95.1667 89.5,94.5 Z"/></g>
<g><path style="opacity:0.008" fill="#000000" d="M 97.5,94.5 C 96.8333,95.1667 96.8333,95.1667 97.5,94.5 Z"/></g>
<g><path style="opacity:0.008" fill="#000000" d="M 5.5,95.5 C 6.83333,96.1667 6.83333,96.1667 5.5,95.5 Z"/></g>
<g><path style="opacity:0.008" fill="#000000" d="M 95.5,95.5 C 95.8333,95.5 96.1667,95.5 96.5,95.5C 96.3147,96.1701 95.9813,96.1701 95.5,95.5 Z"/></g>
<g><path style="opacity:0.008" fill="#000000" d="M 2.5,97.5 C 2.89657,96.475 3.56323,96.3083 4.5,97C 3.90558,97.4643 3.23891,97.631 2.5,97.5 Z"/></g>
<g><path style="opacity:0.008" fill="#000000" d="M 11.5,96.5 C 11.631,97.2389 11.4643,97.9056 11,98.5C 10.3083,97.5632 10.475,96.8966 11.5,96.5 Z"/></g>
<g><path style="opacity:0.008" fill="#000000" d="M 19.5,96.5 C 20.8333,97.1667 20.8333,97.1667 19.5,96.5 Z"/></g>
<g><path style="opacity:0.008" fill="#000000" d="M 22.5,96.5 C 23.8333,97.1667 23.8333,97.1667 22.5,96.5 Z"/></g>
<g><path style="opacity:0.008" fill="#000000" d="M 26.5,97.5 C 25.8333,96.1667 25.8333,96.1667 26.5,97.5 Z"/></g>
<g><path style="opacity:0.008" fill="#000000" d="M 28.5,96.5 C 29.8333,97.1667 29.8333,97.1667 28.5,96.5 Z"/></g>
<g><path style="opacity:0.008" fill="#000000" d="M 32.5,96.5 C 31.8333,97.1667 31.8333,97.1667 32.5,96.5 Z"/></g>
<g><path style="opacity:0.008" fill="#000000" d="M 56.5,96.5 C 57.8333,97.1667 57.8333,97.1667 56.5,96.5 Z"/></g>
<g><path style="opacity:0.008" fill="#000000" d="M 65.5,97.5 C 65.8966,96.475 66.5632,96.3083 67.5,97C 66.9056,97.4643 66.2389,97.631 65.5,97.5 Z"/></g>
<g><path style="opacity:0.008" fill="#000000" d="M 69.5,96.5 C 70.8333,97.1667 70.8333,97.1667 69.5,96.5 Z"/></g>
<g><path style="opacity:0.008" fill="#000000" d="M 81.5,96.5 C 82.8333,97.1667 82.8333,97.1667 81.5,96.5 Z"/></g>
<g><path style="opacity:0.008" fill="#000000" d="M 90.5,97.5 C 90.8966,96.475 91.5632,96.3083 92.5,97C 91.9056,97.4643 91.2389,97.631 90.5,97.5 Z"/></g>
<g><path style="opacity:0.008" fill="#000000" d="M 95.5,96.5 C 94.8333,97.1667 94.8333,97.1667 95.5,96.5 Z"/></g>
<g><path style="opacity:0.008" fill="#000000" d="M 6.5,97.5 C 7.83333,98.1667 7.83333,98.1667 6.5,97.5 Z"/></g>
<g><path style="opacity:0.008" fill="#000000" d="M 8.5,97.5 C 9.83333,98.1667 9.83333,98.1667 8.5,97.5 Z"/></g>
<g><path style="opacity:0.008" fill="#000000" d="M 26.5,97.5 C 27.8333,98.1667 27.8333,98.1667 26.5,97.5 Z"/></g>
<g><path style="opacity:0.008" fill="#000000" d="M 58.5,97.5 C 59.8333,98.1667 59.8333,98.1667 58.5,97.5 Z"/></g>
<g><path style="opacity:0.008" fill="#000000" d="M 83.5,97.5 C 84.8333,98.1667 84.8333,98.1667 83.5,97.5 Z"/></g>
<g><path style="opacity:0.008" fill="#000000" d="M 19.5,99.5 C 18.8333,98.1667 18.8333,98.1667 19.5,99.5 Z"/></g>
<g><path style="opacity:0.008" fill="#000000" d="M 20.5,99.5 C 21.1667,98.1667 21.8333,98.1667 22.5,99.5C 21.8333,99.5 21.1667,99.5 20.5,99.5 Z"/></g>
<g><path style="opacity:0.008" fill="#000000" d="M 62.5,99.5 C 61.8333,98.1667 61.8333,98.1667 62.5,99.5 Z"/></g>
<g><path style="opacity:0.008" fill="#000000" d="M 87.5,99.5 C 86.8333,98.1667 86.8333,98.1667 87.5,99.5 Z"/></g>
</svg>
